%TF.GenerationSoftware,KiCad,Pcbnew,9.0.7*%
%TF.CreationDate,2026-02-04T22:16:56+01:00*%
%TF.ProjectId,shiftBoard,73686966-7442-46f6-9172-642e6b696361,rev?*%
%TF.SameCoordinates,Original*%
%TF.FileFunction,Soldermask,Top*%
%TF.FilePolarity,Negative*%
%FSLAX46Y46*%
G04 Gerber Fmt 4.6, Leading zero omitted, Abs format (unit mm)*
G04 Created by KiCad (PCBNEW 9.0.7) date 2026-02-04 22:16:56*
%MOMM*%
%LPD*%
G01*
G04 APERTURE LIST*
G04 Aperture macros list*
%AMRoundRect*
0 Rectangle with rounded corners*
0 $1 Rounding radius*
0 $2 $3 $4 $5 $6 $7 $8 $9 X,Y pos of 4 corners*
0 Add a 4 corners polygon primitive as box body*
4,1,4,$2,$3,$4,$5,$6,$7,$8,$9,$2,$3,0*
0 Add four circle primitives for the rounded corners*
1,1,$1+$1,$2,$3*
1,1,$1+$1,$4,$5*
1,1,$1+$1,$6,$7*
1,1,$1+$1,$8,$9*
0 Add four rect primitives between the rounded corners*
20,1,$1+$1,$2,$3,$4,$5,0*
20,1,$1+$1,$4,$5,$6,$7,0*
20,1,$1+$1,$6,$7,$8,$9,0*
20,1,$1+$1,$8,$9,$2,$3,0*%
G04 Aperture macros list end*
%ADD10RoundRect,0.249999X-0.850001X-0.850001X0.850001X-0.850001X0.850001X0.850001X-0.850001X0.850001X0*%
%ADD11C,2.200000*%
%ADD12RoundRect,0.198500X0.198500X-0.508500X0.198500X0.508500X-0.198500X0.508500X-0.198500X-0.508500X0*%
%ADD13RoundRect,0.250000X0.400000X0.625000X-0.400000X0.625000X-0.400000X-0.625000X0.400000X-0.625000X0*%
%ADD14RoundRect,0.250001X0.462499X0.624999X-0.462499X0.624999X-0.462499X-0.624999X0.462499X-0.624999X0*%
%ADD15RoundRect,0.250000X-1.050000X1.050000X-1.050000X-1.050000X1.050000X-1.050000X1.050000X1.050000X0*%
%ADD16C,2.600000*%
%ADD17RoundRect,0.250000X-0.412500X-0.650000X0.412500X-0.650000X0.412500X0.650000X-0.412500X0.650000X0*%
%ADD18C,3.200000*%
%ADD19RoundRect,0.102000X0.850900X0.266700X-0.850900X0.266700X-0.850900X-0.266700X0.850900X-0.266700X0*%
G04 APERTURE END LIST*
D10*
%TO.C,D6*%
X218827500Y-63500000D03*
D11*
X228987500Y-63500000D03*
%TD*%
D12*
%TO.C,Q3*%
X227877500Y-102724285D03*
X229777500Y-102724285D03*
X228827500Y-100214285D03*
%TD*%
D13*
%TO.C,R14*%
X209827500Y-69500000D03*
X206727500Y-69500000D03*
%TD*%
D12*
%TO.C,Q7*%
X228050000Y-59295714D03*
X229950000Y-59295714D03*
X229000000Y-56785714D03*
%TD*%
D10*
%TO.C,D5*%
X218827500Y-74500000D03*
D11*
X228987500Y-74500000D03*
%TD*%
D14*
%TO.C,D15*%
X225500000Y-56000000D03*
X222525000Y-56000000D03*
%TD*%
D13*
%TO.C,R13*%
X209827500Y-80500000D03*
X206727500Y-80500000D03*
%TD*%
D14*
%TO.C,D9*%
X225975000Y-122000000D03*
X223000000Y-122000000D03*
%TD*%
D15*
%TO.C,J8*%
X241827500Y-85500000D03*
D16*
X241827500Y-90500000D03*
%TD*%
D13*
%TO.C,R9*%
X209827500Y-125000000D03*
X206727500Y-125000000D03*
%TD*%
D15*
%TO.C,J12*%
X241827500Y-41500000D03*
D16*
X241827500Y-46500000D03*
%TD*%
D14*
%TO.C,D12*%
X225475000Y-89000000D03*
X222500000Y-89000000D03*
%TD*%
D13*
%TO.C,R10*%
X209827500Y-102500000D03*
X206727500Y-102500000D03*
%TD*%
D10*
%TO.C,D4*%
X218827500Y-85500000D03*
D11*
X228987500Y-85500000D03*
%TD*%
D15*
%TO.C,J1*%
X171617500Y-58052500D03*
D16*
X171617500Y-63052500D03*
%TD*%
D13*
%TO.C,R1*%
X220100000Y-122000000D03*
X217000000Y-122000000D03*
%TD*%
D15*
%TO.C,J6*%
X241827500Y-108000000D03*
D16*
X241827500Y-113000000D03*
%TD*%
D13*
%TO.C,R15*%
X209827500Y-58500000D03*
X206727500Y-58500000D03*
%TD*%
D17*
%TO.C,C1*%
X190937500Y-70000000D03*
X194062500Y-70000000D03*
%TD*%
D12*
%TO.C,Q1*%
X227877500Y-124938571D03*
X229777500Y-124938571D03*
X228827500Y-122428571D03*
%TD*%
D13*
%TO.C,R6*%
X220000000Y-67000000D03*
X216900000Y-67000000D03*
%TD*%
D10*
%TO.C,D2*%
X218827500Y-108000000D03*
D11*
X228987500Y-108000000D03*
%TD*%
D13*
%TO.C,R2*%
X220100000Y-111500000D03*
X217000000Y-111500000D03*
%TD*%
D10*
%TO.C,D7*%
X218827500Y-52500000D03*
D11*
X228987500Y-52500000D03*
%TD*%
D18*
%TO.C,H4*%
X168000000Y-124000000D03*
%TD*%
D12*
%TO.C,Q4*%
X227877500Y-91867142D03*
X229777500Y-91867142D03*
X228827500Y-89357142D03*
%TD*%
D15*
%TO.C,J4*%
X171500000Y-93500000D03*
D16*
X171500000Y-98500000D03*
%TD*%
D13*
%TO.C,R12*%
X209827500Y-91500000D03*
X206727500Y-91500000D03*
%TD*%
%TO.C,R3*%
X220050000Y-100000000D03*
X216950000Y-100000000D03*
%TD*%
D14*
%TO.C,D11*%
X225500000Y-100000000D03*
X222525000Y-100000000D03*
%TD*%
D12*
%TO.C,Q6*%
X227877500Y-70152857D03*
X229777500Y-70152857D03*
X228827500Y-67642857D03*
%TD*%
D18*
%TO.C,H2*%
X199500000Y-43000000D03*
%TD*%
%TO.C,H3*%
X168000000Y-43000000D03*
%TD*%
%TO.C,H1*%
X199500000Y-124000000D03*
%TD*%
D15*
%TO.C,J9*%
X241827500Y-74500000D03*
D16*
X241827500Y-79500000D03*
%TD*%
D14*
%TO.C,D16*%
X225500000Y-45000000D03*
X222525000Y-45000000D03*
%TD*%
D10*
%TO.C,D1*%
X218827500Y-119000000D03*
D11*
X228987500Y-119000000D03*
%TD*%
D13*
%TO.C,R16*%
X209827500Y-47500000D03*
X206727500Y-47500000D03*
%TD*%
%TO.C,R8*%
X220000000Y-45000000D03*
X216900000Y-45000000D03*
%TD*%
D19*
%TO.C,U2*%
X195181600Y-81620000D03*
X195181600Y-80350000D03*
X195181600Y-79080000D03*
X195181600Y-77810000D03*
X195181600Y-76540000D03*
X195181600Y-75270000D03*
X195181600Y-74000000D03*
X195181600Y-72730000D03*
X190000000Y-72730000D03*
X190000000Y-74000000D03*
X190000000Y-75270000D03*
X190000000Y-76540000D03*
X190000000Y-77810000D03*
X190000000Y-79080000D03*
X190000000Y-80350000D03*
X190000000Y-81620000D03*
%TD*%
D14*
%TO.C,D14*%
X225500000Y-67000000D03*
X222525000Y-67000000D03*
%TD*%
D15*
%TO.C,J7*%
X241827500Y-96500000D03*
D16*
X241827500Y-101500000D03*
%TD*%
D15*
%TO.C,J11*%
X241827500Y-52500000D03*
D16*
X241827500Y-57500000D03*
%TD*%
D10*
%TO.C,D3*%
X218827500Y-96500000D03*
D11*
X228987500Y-96500000D03*
%TD*%
D15*
%TO.C,J5*%
X241827500Y-119000000D03*
D16*
X241827500Y-124000000D03*
%TD*%
D12*
%TO.C,Q8*%
X227877500Y-48438571D03*
X229777500Y-48438571D03*
X228827500Y-45928571D03*
%TD*%
D14*
%TO.C,D13*%
X225500000Y-78000000D03*
X222525000Y-78000000D03*
%TD*%
D13*
%TO.C,R7*%
X220100000Y-56000000D03*
X217000000Y-56000000D03*
%TD*%
D10*
%TO.C,D8*%
X218827500Y-41500000D03*
D11*
X228987500Y-41500000D03*
%TD*%
D12*
%TO.C,Q2*%
X227877500Y-114081428D03*
X229777500Y-114081428D03*
X228827500Y-111571428D03*
%TD*%
%TO.C,Q5*%
X227877500Y-81010000D03*
X229777500Y-81010000D03*
X228827500Y-78500000D03*
%TD*%
D13*
%TO.C,R5*%
X219932500Y-78120000D03*
X216832500Y-78120000D03*
%TD*%
D14*
%TO.C,D10*%
X225550000Y-111500000D03*
X222575000Y-111500000D03*
%TD*%
D13*
%TO.C,R11*%
X209827500Y-114000000D03*
X206727500Y-114000000D03*
%TD*%
D15*
%TO.C,J2*%
X171617500Y-70102500D03*
D16*
X171617500Y-75102500D03*
%TD*%
D13*
%TO.C,R4*%
X220000000Y-89000000D03*
X216900000Y-89000000D03*
%TD*%
D15*
%TO.C,J10*%
X241827500Y-63500000D03*
D16*
X241827500Y-68500000D03*
%TD*%
D15*
%TO.C,J3*%
X171617500Y-82152500D03*
D16*
X171617500Y-87152500D03*
%TD*%
M02*
