M48
METRIC
T1C0.300
T2C1.100
T3C1.300
T4C3.200
%
G90
G05
T1
X181.5Y-67.5
X186.5Y-98.5
X187.5Y-98.5
X188.5Y-98.5
X191.19Y-77.81
X194.0Y-72.73
X194.062Y-71.5
X233.0Y-47.0
X233.0Y-58.0
X233.0Y-69.0
X233.0Y-80.0
X233.0Y-91.0
X233.0Y-102.0
X233.0Y-113.0
X233.0Y-124.0
T2
X218.827Y-41.5
X218.827Y-52.5
X218.827Y-63.5
X218.827Y-74.5
X218.827Y-85.5
X218.827Y-96.5
X218.827Y-108.0
X218.827Y-119.0
X228.987Y-41.5
X228.987Y-52.5
X228.987Y-63.5
X228.987Y-74.5
X228.987Y-85.5
X228.987Y-96.5
X228.987Y-108.0
X228.987Y-119.0
T3
X171.5Y-93.5
X171.5Y-98.5
X171.617Y-58.052
X171.617Y-63.052
X171.617Y-70.102
X171.617Y-75.102
X171.617Y-82.152
X171.617Y-87.152
X241.827Y-41.5
X241.827Y-46.5
X241.827Y-52.5
X241.827Y-57.5
X241.827Y-63.5
X241.827Y-68.5
X241.827Y-74.5
X241.827Y-79.5
X241.827Y-85.5
X241.827Y-90.5
X241.827Y-96.5
X241.827Y-101.5
X241.827Y-108.0
X241.827Y-113.0
X241.827Y-119.0
X241.827Y-124.0
T4
X168.0Y-43.0
X168.0Y-124.0
X199.5Y-43.0
X199.5Y-124.0
M30
