%TF.GenerationSoftware,KiCad,Pcbnew,9.0.7*%
%TF.CreationDate,2026-02-04T22:16:56+01:00*%
%TF.ProjectId,shiftBoard,73686966-7442-46f6-9172-642e6b696361,rev?*%
%TF.SameCoordinates,Original*%
%TF.FileFunction,Legend,Top*%
%TF.FilePolarity,Positive*%
%FSLAX46Y46*%
G04 Gerber Fmt 4.6, Leading zero omitted, Abs format (unit mm)*
G04 Created by KiCad (PCBNEW 9.0.7) date 2026-02-04 22:16:56*
%MOMM*%
%LPD*%
G01*
G04 APERTURE LIST*
%ADD10C,0.150000*%
%ADD11C,0.120000*%
%ADD12C,0.127000*%
%ADD13C,0.200000*%
%ADD14C,0.152400*%
G04 APERTURE END LIST*
D10*
X223169405Y-61484819D02*
X223169405Y-60484819D01*
X223169405Y-60484819D02*
X223407500Y-60484819D01*
X223407500Y-60484819D02*
X223550357Y-60532438D01*
X223550357Y-60532438D02*
X223645595Y-60627676D01*
X223645595Y-60627676D02*
X223693214Y-60722914D01*
X223693214Y-60722914D02*
X223740833Y-60913390D01*
X223740833Y-60913390D02*
X223740833Y-61056247D01*
X223740833Y-61056247D02*
X223693214Y-61246723D01*
X223693214Y-61246723D02*
X223645595Y-61341961D01*
X223645595Y-61341961D02*
X223550357Y-61437200D01*
X223550357Y-61437200D02*
X223407500Y-61484819D01*
X223407500Y-61484819D02*
X223169405Y-61484819D01*
X224597976Y-60484819D02*
X224407500Y-60484819D01*
X224407500Y-60484819D02*
X224312262Y-60532438D01*
X224312262Y-60532438D02*
X224264643Y-60580057D01*
X224264643Y-60580057D02*
X224169405Y-60722914D01*
X224169405Y-60722914D02*
X224121786Y-60913390D01*
X224121786Y-60913390D02*
X224121786Y-61294342D01*
X224121786Y-61294342D02*
X224169405Y-61389580D01*
X224169405Y-61389580D02*
X224217024Y-61437200D01*
X224217024Y-61437200D02*
X224312262Y-61484819D01*
X224312262Y-61484819D02*
X224502738Y-61484819D01*
X224502738Y-61484819D02*
X224597976Y-61437200D01*
X224597976Y-61437200D02*
X224645595Y-61389580D01*
X224645595Y-61389580D02*
X224693214Y-61294342D01*
X224693214Y-61294342D02*
X224693214Y-61056247D01*
X224693214Y-61056247D02*
X224645595Y-60961009D01*
X224645595Y-60961009D02*
X224597976Y-60913390D01*
X224597976Y-60913390D02*
X224502738Y-60865771D01*
X224502738Y-60865771D02*
X224312262Y-60865771D01*
X224312262Y-60865771D02*
X224217024Y-60913390D01*
X224217024Y-60913390D02*
X224169405Y-60961009D01*
X224169405Y-60961009D02*
X224121786Y-61056247D01*
X218565595Y-61854819D02*
X218565595Y-60854819D01*
X219137023Y-61854819D02*
X218708452Y-61283390D01*
X219137023Y-60854819D02*
X218565595Y-61426247D01*
X232050057Y-100389523D02*
X232002438Y-100484761D01*
X232002438Y-100484761D02*
X231907200Y-100579999D01*
X231907200Y-100579999D02*
X231764342Y-100722856D01*
X231764342Y-100722856D02*
X231716723Y-100818094D01*
X231716723Y-100818094D02*
X231716723Y-100913332D01*
X231954819Y-100865713D02*
X231907200Y-100960951D01*
X231907200Y-100960951D02*
X231811961Y-101056189D01*
X231811961Y-101056189D02*
X231621485Y-101103808D01*
X231621485Y-101103808D02*
X231288152Y-101103808D01*
X231288152Y-101103808D02*
X231097676Y-101056189D01*
X231097676Y-101056189D02*
X231002438Y-100960951D01*
X231002438Y-100960951D02*
X230954819Y-100865713D01*
X230954819Y-100865713D02*
X230954819Y-100675237D01*
X230954819Y-100675237D02*
X231002438Y-100579999D01*
X231002438Y-100579999D02*
X231097676Y-100484761D01*
X231097676Y-100484761D02*
X231288152Y-100437142D01*
X231288152Y-100437142D02*
X231621485Y-100437142D01*
X231621485Y-100437142D02*
X231811961Y-100484761D01*
X231811961Y-100484761D02*
X231907200Y-100579999D01*
X231907200Y-100579999D02*
X231954819Y-100675237D01*
X231954819Y-100675237D02*
X231954819Y-100865713D01*
X230954819Y-100103808D02*
X230954819Y-99484761D01*
X230954819Y-99484761D02*
X231335771Y-99818094D01*
X231335771Y-99818094D02*
X231335771Y-99675237D01*
X231335771Y-99675237D02*
X231383390Y-99579999D01*
X231383390Y-99579999D02*
X231431009Y-99532380D01*
X231431009Y-99532380D02*
X231526247Y-99484761D01*
X231526247Y-99484761D02*
X231764342Y-99484761D01*
X231764342Y-99484761D02*
X231859580Y-99532380D01*
X231859580Y-99532380D02*
X231907200Y-99579999D01*
X231907200Y-99579999D02*
X231954819Y-99675237D01*
X231954819Y-99675237D02*
X231954819Y-99960951D01*
X231954819Y-99960951D02*
X231907200Y-100056189D01*
X231907200Y-100056189D02*
X231859580Y-100103808D01*
X207634642Y-71954819D02*
X207301309Y-71478628D01*
X207063214Y-71954819D02*
X207063214Y-70954819D01*
X207063214Y-70954819D02*
X207444166Y-70954819D01*
X207444166Y-70954819D02*
X207539404Y-71002438D01*
X207539404Y-71002438D02*
X207587023Y-71050057D01*
X207587023Y-71050057D02*
X207634642Y-71145295D01*
X207634642Y-71145295D02*
X207634642Y-71288152D01*
X207634642Y-71288152D02*
X207587023Y-71383390D01*
X207587023Y-71383390D02*
X207539404Y-71431009D01*
X207539404Y-71431009D02*
X207444166Y-71478628D01*
X207444166Y-71478628D02*
X207063214Y-71478628D01*
X208587023Y-71954819D02*
X208015595Y-71954819D01*
X208301309Y-71954819D02*
X208301309Y-70954819D01*
X208301309Y-70954819D02*
X208206071Y-71097676D01*
X208206071Y-71097676D02*
X208110833Y-71192914D01*
X208110833Y-71192914D02*
X208015595Y-71240533D01*
X209444166Y-71288152D02*
X209444166Y-71954819D01*
X209206071Y-70907200D02*
X208967976Y-71621485D01*
X208967976Y-71621485D02*
X209587023Y-71621485D01*
X232550057Y-56595238D02*
X232502438Y-56690476D01*
X232502438Y-56690476D02*
X232407200Y-56785714D01*
X232407200Y-56785714D02*
X232264342Y-56928571D01*
X232264342Y-56928571D02*
X232216723Y-57023809D01*
X232216723Y-57023809D02*
X232216723Y-57119047D01*
X232454819Y-57071428D02*
X232407200Y-57166666D01*
X232407200Y-57166666D02*
X232311961Y-57261904D01*
X232311961Y-57261904D02*
X232121485Y-57309523D01*
X232121485Y-57309523D02*
X231788152Y-57309523D01*
X231788152Y-57309523D02*
X231597676Y-57261904D01*
X231597676Y-57261904D02*
X231502438Y-57166666D01*
X231502438Y-57166666D02*
X231454819Y-57071428D01*
X231454819Y-57071428D02*
X231454819Y-56880952D01*
X231454819Y-56880952D02*
X231502438Y-56785714D01*
X231502438Y-56785714D02*
X231597676Y-56690476D01*
X231597676Y-56690476D02*
X231788152Y-56642857D01*
X231788152Y-56642857D02*
X232121485Y-56642857D01*
X232121485Y-56642857D02*
X232311961Y-56690476D01*
X232311961Y-56690476D02*
X232407200Y-56785714D01*
X232407200Y-56785714D02*
X232454819Y-56880952D01*
X232454819Y-56880952D02*
X232454819Y-57071428D01*
X231454819Y-56309523D02*
X231454819Y-55642857D01*
X231454819Y-55642857D02*
X232454819Y-56071428D01*
X223169405Y-72484819D02*
X223169405Y-71484819D01*
X223169405Y-71484819D02*
X223407500Y-71484819D01*
X223407500Y-71484819D02*
X223550357Y-71532438D01*
X223550357Y-71532438D02*
X223645595Y-71627676D01*
X223645595Y-71627676D02*
X223693214Y-71722914D01*
X223693214Y-71722914D02*
X223740833Y-71913390D01*
X223740833Y-71913390D02*
X223740833Y-72056247D01*
X223740833Y-72056247D02*
X223693214Y-72246723D01*
X223693214Y-72246723D02*
X223645595Y-72341961D01*
X223645595Y-72341961D02*
X223550357Y-72437200D01*
X223550357Y-72437200D02*
X223407500Y-72484819D01*
X223407500Y-72484819D02*
X223169405Y-72484819D01*
X224645595Y-71484819D02*
X224169405Y-71484819D01*
X224169405Y-71484819D02*
X224121786Y-71961009D01*
X224121786Y-71961009D02*
X224169405Y-71913390D01*
X224169405Y-71913390D02*
X224264643Y-71865771D01*
X224264643Y-71865771D02*
X224502738Y-71865771D01*
X224502738Y-71865771D02*
X224597976Y-71913390D01*
X224597976Y-71913390D02*
X224645595Y-71961009D01*
X224645595Y-71961009D02*
X224693214Y-72056247D01*
X224693214Y-72056247D02*
X224693214Y-72294342D01*
X224693214Y-72294342D02*
X224645595Y-72389580D01*
X224645595Y-72389580D02*
X224597976Y-72437200D01*
X224597976Y-72437200D02*
X224502738Y-72484819D01*
X224502738Y-72484819D02*
X224264643Y-72484819D01*
X224264643Y-72484819D02*
X224169405Y-72437200D01*
X224169405Y-72437200D02*
X224121786Y-72389580D01*
X218565595Y-72854819D02*
X218565595Y-71854819D01*
X219137023Y-72854819D02*
X218708452Y-72283390D01*
X219137023Y-71854819D02*
X218565595Y-72426247D01*
X222798214Y-58284819D02*
X222798214Y-57284819D01*
X222798214Y-57284819D02*
X223036309Y-57284819D01*
X223036309Y-57284819D02*
X223179166Y-57332438D01*
X223179166Y-57332438D02*
X223274404Y-57427676D01*
X223274404Y-57427676D02*
X223322023Y-57522914D01*
X223322023Y-57522914D02*
X223369642Y-57713390D01*
X223369642Y-57713390D02*
X223369642Y-57856247D01*
X223369642Y-57856247D02*
X223322023Y-58046723D01*
X223322023Y-58046723D02*
X223274404Y-58141961D01*
X223274404Y-58141961D02*
X223179166Y-58237200D01*
X223179166Y-58237200D02*
X223036309Y-58284819D01*
X223036309Y-58284819D02*
X222798214Y-58284819D01*
X224322023Y-58284819D02*
X223750595Y-58284819D01*
X224036309Y-58284819D02*
X224036309Y-57284819D01*
X224036309Y-57284819D02*
X223941071Y-57427676D01*
X223941071Y-57427676D02*
X223845833Y-57522914D01*
X223845833Y-57522914D02*
X223750595Y-57570533D01*
X225226785Y-57284819D02*
X224750595Y-57284819D01*
X224750595Y-57284819D02*
X224702976Y-57761009D01*
X224702976Y-57761009D02*
X224750595Y-57713390D01*
X224750595Y-57713390D02*
X224845833Y-57665771D01*
X224845833Y-57665771D02*
X225083928Y-57665771D01*
X225083928Y-57665771D02*
X225179166Y-57713390D01*
X225179166Y-57713390D02*
X225226785Y-57761009D01*
X225226785Y-57761009D02*
X225274404Y-57856247D01*
X225274404Y-57856247D02*
X225274404Y-58094342D01*
X225274404Y-58094342D02*
X225226785Y-58189580D01*
X225226785Y-58189580D02*
X225179166Y-58237200D01*
X225179166Y-58237200D02*
X225083928Y-58284819D01*
X225083928Y-58284819D02*
X224845833Y-58284819D01*
X224845833Y-58284819D02*
X224750595Y-58237200D01*
X224750595Y-58237200D02*
X224702976Y-58189580D01*
X207634642Y-82954819D02*
X207301309Y-82478628D01*
X207063214Y-82954819D02*
X207063214Y-81954819D01*
X207063214Y-81954819D02*
X207444166Y-81954819D01*
X207444166Y-81954819D02*
X207539404Y-82002438D01*
X207539404Y-82002438D02*
X207587023Y-82050057D01*
X207587023Y-82050057D02*
X207634642Y-82145295D01*
X207634642Y-82145295D02*
X207634642Y-82288152D01*
X207634642Y-82288152D02*
X207587023Y-82383390D01*
X207587023Y-82383390D02*
X207539404Y-82431009D01*
X207539404Y-82431009D02*
X207444166Y-82478628D01*
X207444166Y-82478628D02*
X207063214Y-82478628D01*
X208587023Y-82954819D02*
X208015595Y-82954819D01*
X208301309Y-82954819D02*
X208301309Y-81954819D01*
X208301309Y-81954819D02*
X208206071Y-82097676D01*
X208206071Y-82097676D02*
X208110833Y-82192914D01*
X208110833Y-82192914D02*
X208015595Y-82240533D01*
X208920357Y-81954819D02*
X209539404Y-81954819D01*
X209539404Y-81954819D02*
X209206071Y-82335771D01*
X209206071Y-82335771D02*
X209348928Y-82335771D01*
X209348928Y-82335771D02*
X209444166Y-82383390D01*
X209444166Y-82383390D02*
X209491785Y-82431009D01*
X209491785Y-82431009D02*
X209539404Y-82526247D01*
X209539404Y-82526247D02*
X209539404Y-82764342D01*
X209539404Y-82764342D02*
X209491785Y-82859580D01*
X209491785Y-82859580D02*
X209444166Y-82907200D01*
X209444166Y-82907200D02*
X209348928Y-82954819D01*
X209348928Y-82954819D02*
X209063214Y-82954819D01*
X209063214Y-82954819D02*
X208967976Y-82907200D01*
X208967976Y-82907200D02*
X208920357Y-82859580D01*
X223749405Y-124284819D02*
X223749405Y-123284819D01*
X223749405Y-123284819D02*
X223987500Y-123284819D01*
X223987500Y-123284819D02*
X224130357Y-123332438D01*
X224130357Y-123332438D02*
X224225595Y-123427676D01*
X224225595Y-123427676D02*
X224273214Y-123522914D01*
X224273214Y-123522914D02*
X224320833Y-123713390D01*
X224320833Y-123713390D02*
X224320833Y-123856247D01*
X224320833Y-123856247D02*
X224273214Y-124046723D01*
X224273214Y-124046723D02*
X224225595Y-124141961D01*
X224225595Y-124141961D02*
X224130357Y-124237200D01*
X224130357Y-124237200D02*
X223987500Y-124284819D01*
X223987500Y-124284819D02*
X223749405Y-124284819D01*
X224797024Y-124284819D02*
X224987500Y-124284819D01*
X224987500Y-124284819D02*
X225082738Y-124237200D01*
X225082738Y-124237200D02*
X225130357Y-124189580D01*
X225130357Y-124189580D02*
X225225595Y-124046723D01*
X225225595Y-124046723D02*
X225273214Y-123856247D01*
X225273214Y-123856247D02*
X225273214Y-123475295D01*
X225273214Y-123475295D02*
X225225595Y-123380057D01*
X225225595Y-123380057D02*
X225177976Y-123332438D01*
X225177976Y-123332438D02*
X225082738Y-123284819D01*
X225082738Y-123284819D02*
X224892262Y-123284819D01*
X224892262Y-123284819D02*
X224797024Y-123332438D01*
X224797024Y-123332438D02*
X224749405Y-123380057D01*
X224749405Y-123380057D02*
X224701786Y-123475295D01*
X224701786Y-123475295D02*
X224701786Y-123713390D01*
X224701786Y-123713390D02*
X224749405Y-123808628D01*
X224749405Y-123808628D02*
X224797024Y-123856247D01*
X224797024Y-123856247D02*
X224892262Y-123903866D01*
X224892262Y-123903866D02*
X225082738Y-123903866D01*
X225082738Y-123903866D02*
X225177976Y-123856247D01*
X225177976Y-123856247D02*
X225225595Y-123808628D01*
X225225595Y-123808628D02*
X225273214Y-123713390D01*
X247602319Y-88333333D02*
X248316604Y-88333333D01*
X248316604Y-88333333D02*
X248459461Y-88380952D01*
X248459461Y-88380952D02*
X248554700Y-88476190D01*
X248554700Y-88476190D02*
X248602319Y-88619047D01*
X248602319Y-88619047D02*
X248602319Y-88714285D01*
X248030890Y-87714285D02*
X247983271Y-87809523D01*
X247983271Y-87809523D02*
X247935652Y-87857142D01*
X247935652Y-87857142D02*
X247840414Y-87904761D01*
X247840414Y-87904761D02*
X247792795Y-87904761D01*
X247792795Y-87904761D02*
X247697557Y-87857142D01*
X247697557Y-87857142D02*
X247649938Y-87809523D01*
X247649938Y-87809523D02*
X247602319Y-87714285D01*
X247602319Y-87714285D02*
X247602319Y-87523809D01*
X247602319Y-87523809D02*
X247649938Y-87428571D01*
X247649938Y-87428571D02*
X247697557Y-87380952D01*
X247697557Y-87380952D02*
X247792795Y-87333333D01*
X247792795Y-87333333D02*
X247840414Y-87333333D01*
X247840414Y-87333333D02*
X247935652Y-87380952D01*
X247935652Y-87380952D02*
X247983271Y-87428571D01*
X247983271Y-87428571D02*
X248030890Y-87523809D01*
X248030890Y-87523809D02*
X248030890Y-87714285D01*
X248030890Y-87714285D02*
X248078509Y-87809523D01*
X248078509Y-87809523D02*
X248126128Y-87857142D01*
X248126128Y-87857142D02*
X248221366Y-87904761D01*
X248221366Y-87904761D02*
X248411842Y-87904761D01*
X248411842Y-87904761D02*
X248507080Y-87857142D01*
X248507080Y-87857142D02*
X248554700Y-87809523D01*
X248554700Y-87809523D02*
X248602319Y-87714285D01*
X248602319Y-87714285D02*
X248602319Y-87523809D01*
X248602319Y-87523809D02*
X248554700Y-87428571D01*
X248554700Y-87428571D02*
X248507080Y-87380952D01*
X248507080Y-87380952D02*
X248411842Y-87333333D01*
X248411842Y-87333333D02*
X248221366Y-87333333D01*
X248221366Y-87333333D02*
X248126128Y-87380952D01*
X248126128Y-87380952D02*
X248078509Y-87428571D01*
X248078509Y-87428571D02*
X248030890Y-87523809D01*
X208110833Y-127284819D02*
X207777500Y-126808628D01*
X207539405Y-127284819D02*
X207539405Y-126284819D01*
X207539405Y-126284819D02*
X207920357Y-126284819D01*
X207920357Y-126284819D02*
X208015595Y-126332438D01*
X208015595Y-126332438D02*
X208063214Y-126380057D01*
X208063214Y-126380057D02*
X208110833Y-126475295D01*
X208110833Y-126475295D02*
X208110833Y-126618152D01*
X208110833Y-126618152D02*
X208063214Y-126713390D01*
X208063214Y-126713390D02*
X208015595Y-126761009D01*
X208015595Y-126761009D02*
X207920357Y-126808628D01*
X207920357Y-126808628D02*
X207539405Y-126808628D01*
X208587024Y-127284819D02*
X208777500Y-127284819D01*
X208777500Y-127284819D02*
X208872738Y-127237200D01*
X208872738Y-127237200D02*
X208920357Y-127189580D01*
X208920357Y-127189580D02*
X209015595Y-127046723D01*
X209015595Y-127046723D02*
X209063214Y-126856247D01*
X209063214Y-126856247D02*
X209063214Y-126475295D01*
X209063214Y-126475295D02*
X209015595Y-126380057D01*
X209015595Y-126380057D02*
X208967976Y-126332438D01*
X208967976Y-126332438D02*
X208872738Y-126284819D01*
X208872738Y-126284819D02*
X208682262Y-126284819D01*
X208682262Y-126284819D02*
X208587024Y-126332438D01*
X208587024Y-126332438D02*
X208539405Y-126380057D01*
X208539405Y-126380057D02*
X208491786Y-126475295D01*
X208491786Y-126475295D02*
X208491786Y-126713390D01*
X208491786Y-126713390D02*
X208539405Y-126808628D01*
X208539405Y-126808628D02*
X208587024Y-126856247D01*
X208587024Y-126856247D02*
X208682262Y-126903866D01*
X208682262Y-126903866D02*
X208872738Y-126903866D01*
X208872738Y-126903866D02*
X208967976Y-126856247D01*
X208967976Y-126856247D02*
X209015595Y-126808628D01*
X209015595Y-126808628D02*
X209063214Y-126713390D01*
X247602319Y-44809523D02*
X248316604Y-44809523D01*
X248316604Y-44809523D02*
X248459461Y-44857142D01*
X248459461Y-44857142D02*
X248554700Y-44952380D01*
X248554700Y-44952380D02*
X248602319Y-45095237D01*
X248602319Y-45095237D02*
X248602319Y-45190475D01*
X248602319Y-43809523D02*
X248602319Y-44380951D01*
X248602319Y-44095237D02*
X247602319Y-44095237D01*
X247602319Y-44095237D02*
X247745176Y-44190475D01*
X247745176Y-44190475D02*
X247840414Y-44285713D01*
X247840414Y-44285713D02*
X247888033Y-44380951D01*
X247697557Y-43428570D02*
X247649938Y-43380951D01*
X247649938Y-43380951D02*
X247602319Y-43285713D01*
X247602319Y-43285713D02*
X247602319Y-43047618D01*
X247602319Y-43047618D02*
X247649938Y-42952380D01*
X247649938Y-42952380D02*
X247697557Y-42904761D01*
X247697557Y-42904761D02*
X247792795Y-42857142D01*
X247792795Y-42857142D02*
X247888033Y-42857142D01*
X247888033Y-42857142D02*
X248030890Y-42904761D01*
X248030890Y-42904761D02*
X248602319Y-43476189D01*
X248602319Y-43476189D02*
X248602319Y-42857142D01*
X222773214Y-91284819D02*
X222773214Y-90284819D01*
X222773214Y-90284819D02*
X223011309Y-90284819D01*
X223011309Y-90284819D02*
X223154166Y-90332438D01*
X223154166Y-90332438D02*
X223249404Y-90427676D01*
X223249404Y-90427676D02*
X223297023Y-90522914D01*
X223297023Y-90522914D02*
X223344642Y-90713390D01*
X223344642Y-90713390D02*
X223344642Y-90856247D01*
X223344642Y-90856247D02*
X223297023Y-91046723D01*
X223297023Y-91046723D02*
X223249404Y-91141961D01*
X223249404Y-91141961D02*
X223154166Y-91237200D01*
X223154166Y-91237200D02*
X223011309Y-91284819D01*
X223011309Y-91284819D02*
X222773214Y-91284819D01*
X224297023Y-91284819D02*
X223725595Y-91284819D01*
X224011309Y-91284819D02*
X224011309Y-90284819D01*
X224011309Y-90284819D02*
X223916071Y-90427676D01*
X223916071Y-90427676D02*
X223820833Y-90522914D01*
X223820833Y-90522914D02*
X223725595Y-90570533D01*
X224677976Y-90380057D02*
X224725595Y-90332438D01*
X224725595Y-90332438D02*
X224820833Y-90284819D01*
X224820833Y-90284819D02*
X225058928Y-90284819D01*
X225058928Y-90284819D02*
X225154166Y-90332438D01*
X225154166Y-90332438D02*
X225201785Y-90380057D01*
X225201785Y-90380057D02*
X225249404Y-90475295D01*
X225249404Y-90475295D02*
X225249404Y-90570533D01*
X225249404Y-90570533D02*
X225201785Y-90713390D01*
X225201785Y-90713390D02*
X224630357Y-91284819D01*
X224630357Y-91284819D02*
X225249404Y-91284819D01*
X207634642Y-105454819D02*
X207301309Y-104978628D01*
X207063214Y-105454819D02*
X207063214Y-104454819D01*
X207063214Y-104454819D02*
X207444166Y-104454819D01*
X207444166Y-104454819D02*
X207539404Y-104502438D01*
X207539404Y-104502438D02*
X207587023Y-104550057D01*
X207587023Y-104550057D02*
X207634642Y-104645295D01*
X207634642Y-104645295D02*
X207634642Y-104788152D01*
X207634642Y-104788152D02*
X207587023Y-104883390D01*
X207587023Y-104883390D02*
X207539404Y-104931009D01*
X207539404Y-104931009D02*
X207444166Y-104978628D01*
X207444166Y-104978628D02*
X207063214Y-104978628D01*
X208587023Y-105454819D02*
X208015595Y-105454819D01*
X208301309Y-105454819D02*
X208301309Y-104454819D01*
X208301309Y-104454819D02*
X208206071Y-104597676D01*
X208206071Y-104597676D02*
X208110833Y-104692914D01*
X208110833Y-104692914D02*
X208015595Y-104740533D01*
X209206071Y-104454819D02*
X209301309Y-104454819D01*
X209301309Y-104454819D02*
X209396547Y-104502438D01*
X209396547Y-104502438D02*
X209444166Y-104550057D01*
X209444166Y-104550057D02*
X209491785Y-104645295D01*
X209491785Y-104645295D02*
X209539404Y-104835771D01*
X209539404Y-104835771D02*
X209539404Y-105073866D01*
X209539404Y-105073866D02*
X209491785Y-105264342D01*
X209491785Y-105264342D02*
X209444166Y-105359580D01*
X209444166Y-105359580D02*
X209396547Y-105407200D01*
X209396547Y-105407200D02*
X209301309Y-105454819D01*
X209301309Y-105454819D02*
X209206071Y-105454819D01*
X209206071Y-105454819D02*
X209110833Y-105407200D01*
X209110833Y-105407200D02*
X209063214Y-105359580D01*
X209063214Y-105359580D02*
X209015595Y-105264342D01*
X209015595Y-105264342D02*
X208967976Y-105073866D01*
X208967976Y-105073866D02*
X208967976Y-104835771D01*
X208967976Y-104835771D02*
X209015595Y-104645295D01*
X209015595Y-104645295D02*
X209063214Y-104550057D01*
X209063214Y-104550057D02*
X209110833Y-104502438D01*
X209110833Y-104502438D02*
X209206071Y-104454819D01*
X223261905Y-83454819D02*
X223261905Y-82454819D01*
X223261905Y-82454819D02*
X223500000Y-82454819D01*
X223500000Y-82454819D02*
X223642857Y-82502438D01*
X223642857Y-82502438D02*
X223738095Y-82597676D01*
X223738095Y-82597676D02*
X223785714Y-82692914D01*
X223785714Y-82692914D02*
X223833333Y-82883390D01*
X223833333Y-82883390D02*
X223833333Y-83026247D01*
X223833333Y-83026247D02*
X223785714Y-83216723D01*
X223785714Y-83216723D02*
X223738095Y-83311961D01*
X223738095Y-83311961D02*
X223642857Y-83407200D01*
X223642857Y-83407200D02*
X223500000Y-83454819D01*
X223500000Y-83454819D02*
X223261905Y-83454819D01*
X224690476Y-82788152D02*
X224690476Y-83454819D01*
X224452381Y-82407200D02*
X224214286Y-83121485D01*
X224214286Y-83121485D02*
X224833333Y-83121485D01*
X219485595Y-83854819D02*
X219485595Y-82854819D01*
X220057023Y-83854819D02*
X219628452Y-83283390D01*
X220057023Y-82854819D02*
X219485595Y-83426247D01*
X177392319Y-60885833D02*
X178106604Y-60885833D01*
X178106604Y-60885833D02*
X178249461Y-60933452D01*
X178249461Y-60933452D02*
X178344700Y-61028690D01*
X178344700Y-61028690D02*
X178392319Y-61171547D01*
X178392319Y-61171547D02*
X178392319Y-61266785D01*
X178392319Y-59885833D02*
X178392319Y-60457261D01*
X178392319Y-60171547D02*
X177392319Y-60171547D01*
X177392319Y-60171547D02*
X177535176Y-60266785D01*
X177535176Y-60266785D02*
X177630414Y-60362023D01*
X177630414Y-60362023D02*
X177678033Y-60457261D01*
X218383333Y-124284819D02*
X218050000Y-123808628D01*
X217811905Y-124284819D02*
X217811905Y-123284819D01*
X217811905Y-123284819D02*
X218192857Y-123284819D01*
X218192857Y-123284819D02*
X218288095Y-123332438D01*
X218288095Y-123332438D02*
X218335714Y-123380057D01*
X218335714Y-123380057D02*
X218383333Y-123475295D01*
X218383333Y-123475295D02*
X218383333Y-123618152D01*
X218383333Y-123618152D02*
X218335714Y-123713390D01*
X218335714Y-123713390D02*
X218288095Y-123761009D01*
X218288095Y-123761009D02*
X218192857Y-123808628D01*
X218192857Y-123808628D02*
X217811905Y-123808628D01*
X219335714Y-124284819D02*
X218764286Y-124284819D01*
X219050000Y-124284819D02*
X219050000Y-123284819D01*
X219050000Y-123284819D02*
X218954762Y-123427676D01*
X218954762Y-123427676D02*
X218859524Y-123522914D01*
X218859524Y-123522914D02*
X218764286Y-123570533D01*
X247602319Y-110833333D02*
X248316604Y-110833333D01*
X248316604Y-110833333D02*
X248459461Y-110880952D01*
X248459461Y-110880952D02*
X248554700Y-110976190D01*
X248554700Y-110976190D02*
X248602319Y-111119047D01*
X248602319Y-111119047D02*
X248602319Y-111214285D01*
X247602319Y-109928571D02*
X247602319Y-110119047D01*
X247602319Y-110119047D02*
X247649938Y-110214285D01*
X247649938Y-110214285D02*
X247697557Y-110261904D01*
X247697557Y-110261904D02*
X247840414Y-110357142D01*
X247840414Y-110357142D02*
X248030890Y-110404761D01*
X248030890Y-110404761D02*
X248411842Y-110404761D01*
X248411842Y-110404761D02*
X248507080Y-110357142D01*
X248507080Y-110357142D02*
X248554700Y-110309523D01*
X248554700Y-110309523D02*
X248602319Y-110214285D01*
X248602319Y-110214285D02*
X248602319Y-110023809D01*
X248602319Y-110023809D02*
X248554700Y-109928571D01*
X248554700Y-109928571D02*
X248507080Y-109880952D01*
X248507080Y-109880952D02*
X248411842Y-109833333D01*
X248411842Y-109833333D02*
X248173747Y-109833333D01*
X248173747Y-109833333D02*
X248078509Y-109880952D01*
X248078509Y-109880952D02*
X248030890Y-109928571D01*
X248030890Y-109928571D02*
X247983271Y-110023809D01*
X247983271Y-110023809D02*
X247983271Y-110214285D01*
X247983271Y-110214285D02*
X248030890Y-110309523D01*
X248030890Y-110309523D02*
X248078509Y-110357142D01*
X248078509Y-110357142D02*
X248173747Y-110404761D01*
X207184642Y-60954819D02*
X206851309Y-60478628D01*
X206613214Y-60954819D02*
X206613214Y-59954819D01*
X206613214Y-59954819D02*
X206994166Y-59954819D01*
X206994166Y-59954819D02*
X207089404Y-60002438D01*
X207089404Y-60002438D02*
X207137023Y-60050057D01*
X207137023Y-60050057D02*
X207184642Y-60145295D01*
X207184642Y-60145295D02*
X207184642Y-60288152D01*
X207184642Y-60288152D02*
X207137023Y-60383390D01*
X207137023Y-60383390D02*
X207089404Y-60431009D01*
X207089404Y-60431009D02*
X206994166Y-60478628D01*
X206994166Y-60478628D02*
X206613214Y-60478628D01*
X208137023Y-60954819D02*
X207565595Y-60954819D01*
X207851309Y-60954819D02*
X207851309Y-59954819D01*
X207851309Y-59954819D02*
X207756071Y-60097676D01*
X207756071Y-60097676D02*
X207660833Y-60192914D01*
X207660833Y-60192914D02*
X207565595Y-60240533D01*
X209041785Y-59954819D02*
X208565595Y-59954819D01*
X208565595Y-59954819D02*
X208517976Y-60431009D01*
X208517976Y-60431009D02*
X208565595Y-60383390D01*
X208565595Y-60383390D02*
X208660833Y-60335771D01*
X208660833Y-60335771D02*
X208898928Y-60335771D01*
X208898928Y-60335771D02*
X208994166Y-60383390D01*
X208994166Y-60383390D02*
X209041785Y-60431009D01*
X209041785Y-60431009D02*
X209089404Y-60526247D01*
X209089404Y-60526247D02*
X209089404Y-60764342D01*
X209089404Y-60764342D02*
X209041785Y-60859580D01*
X209041785Y-60859580D02*
X208994166Y-60907200D01*
X208994166Y-60907200D02*
X208898928Y-60954819D01*
X208898928Y-60954819D02*
X208660833Y-60954819D01*
X208660833Y-60954819D02*
X208565595Y-60907200D01*
X208565595Y-60907200D02*
X208517976Y-60859580D01*
X192333333Y-68509580D02*
X192285714Y-68557200D01*
X192285714Y-68557200D02*
X192142857Y-68604819D01*
X192142857Y-68604819D02*
X192047619Y-68604819D01*
X192047619Y-68604819D02*
X191904762Y-68557200D01*
X191904762Y-68557200D02*
X191809524Y-68461961D01*
X191809524Y-68461961D02*
X191761905Y-68366723D01*
X191761905Y-68366723D02*
X191714286Y-68176247D01*
X191714286Y-68176247D02*
X191714286Y-68033390D01*
X191714286Y-68033390D02*
X191761905Y-67842914D01*
X191761905Y-67842914D02*
X191809524Y-67747676D01*
X191809524Y-67747676D02*
X191904762Y-67652438D01*
X191904762Y-67652438D02*
X192047619Y-67604819D01*
X192047619Y-67604819D02*
X192142857Y-67604819D01*
X192142857Y-67604819D02*
X192285714Y-67652438D01*
X192285714Y-67652438D02*
X192333333Y-67700057D01*
X193285714Y-68604819D02*
X192714286Y-68604819D01*
X193000000Y-68604819D02*
X193000000Y-67604819D01*
X193000000Y-67604819D02*
X192904762Y-67747676D01*
X192904762Y-67747676D02*
X192809524Y-67842914D01*
X192809524Y-67842914D02*
X192714286Y-67890533D01*
X232050057Y-122595238D02*
X232002438Y-122690476D01*
X232002438Y-122690476D02*
X231907200Y-122785714D01*
X231907200Y-122785714D02*
X231764342Y-122928571D01*
X231764342Y-122928571D02*
X231716723Y-123023809D01*
X231716723Y-123023809D02*
X231716723Y-123119047D01*
X231954819Y-123071428D02*
X231907200Y-123166666D01*
X231907200Y-123166666D02*
X231811961Y-123261904D01*
X231811961Y-123261904D02*
X231621485Y-123309523D01*
X231621485Y-123309523D02*
X231288152Y-123309523D01*
X231288152Y-123309523D02*
X231097676Y-123261904D01*
X231097676Y-123261904D02*
X231002438Y-123166666D01*
X231002438Y-123166666D02*
X230954819Y-123071428D01*
X230954819Y-123071428D02*
X230954819Y-122880952D01*
X230954819Y-122880952D02*
X231002438Y-122785714D01*
X231002438Y-122785714D02*
X231097676Y-122690476D01*
X231097676Y-122690476D02*
X231288152Y-122642857D01*
X231288152Y-122642857D02*
X231621485Y-122642857D01*
X231621485Y-122642857D02*
X231811961Y-122690476D01*
X231811961Y-122690476D02*
X231907200Y-122785714D01*
X231907200Y-122785714D02*
X231954819Y-122880952D01*
X231954819Y-122880952D02*
X231954819Y-123071428D01*
X231954819Y-121690476D02*
X231954819Y-122261904D01*
X231954819Y-121976190D02*
X230954819Y-121976190D01*
X230954819Y-121976190D02*
X231097676Y-122071428D01*
X231097676Y-122071428D02*
X231192914Y-122166666D01*
X231192914Y-122166666D02*
X231240533Y-122261904D01*
X218333333Y-69454819D02*
X218000000Y-68978628D01*
X217761905Y-69454819D02*
X217761905Y-68454819D01*
X217761905Y-68454819D02*
X218142857Y-68454819D01*
X218142857Y-68454819D02*
X218238095Y-68502438D01*
X218238095Y-68502438D02*
X218285714Y-68550057D01*
X218285714Y-68550057D02*
X218333333Y-68645295D01*
X218333333Y-68645295D02*
X218333333Y-68788152D01*
X218333333Y-68788152D02*
X218285714Y-68883390D01*
X218285714Y-68883390D02*
X218238095Y-68931009D01*
X218238095Y-68931009D02*
X218142857Y-68978628D01*
X218142857Y-68978628D02*
X217761905Y-68978628D01*
X219190476Y-68454819D02*
X219000000Y-68454819D01*
X219000000Y-68454819D02*
X218904762Y-68502438D01*
X218904762Y-68502438D02*
X218857143Y-68550057D01*
X218857143Y-68550057D02*
X218761905Y-68692914D01*
X218761905Y-68692914D02*
X218714286Y-68883390D01*
X218714286Y-68883390D02*
X218714286Y-69264342D01*
X218714286Y-69264342D02*
X218761905Y-69359580D01*
X218761905Y-69359580D02*
X218809524Y-69407200D01*
X218809524Y-69407200D02*
X218904762Y-69454819D01*
X218904762Y-69454819D02*
X219095238Y-69454819D01*
X219095238Y-69454819D02*
X219190476Y-69407200D01*
X219190476Y-69407200D02*
X219238095Y-69359580D01*
X219238095Y-69359580D02*
X219285714Y-69264342D01*
X219285714Y-69264342D02*
X219285714Y-69026247D01*
X219285714Y-69026247D02*
X219238095Y-68931009D01*
X219238095Y-68931009D02*
X219190476Y-68883390D01*
X219190476Y-68883390D02*
X219095238Y-68835771D01*
X219095238Y-68835771D02*
X218904762Y-68835771D01*
X218904762Y-68835771D02*
X218809524Y-68883390D01*
X218809524Y-68883390D02*
X218761905Y-68931009D01*
X218761905Y-68931009D02*
X218714286Y-69026247D01*
X223761905Y-105984819D02*
X223761905Y-104984819D01*
X223761905Y-104984819D02*
X224000000Y-104984819D01*
X224000000Y-104984819D02*
X224142857Y-105032438D01*
X224142857Y-105032438D02*
X224238095Y-105127676D01*
X224238095Y-105127676D02*
X224285714Y-105222914D01*
X224285714Y-105222914D02*
X224333333Y-105413390D01*
X224333333Y-105413390D02*
X224333333Y-105556247D01*
X224333333Y-105556247D02*
X224285714Y-105746723D01*
X224285714Y-105746723D02*
X224238095Y-105841961D01*
X224238095Y-105841961D02*
X224142857Y-105937200D01*
X224142857Y-105937200D02*
X224000000Y-105984819D01*
X224000000Y-105984819D02*
X223761905Y-105984819D01*
X224714286Y-105080057D02*
X224761905Y-105032438D01*
X224761905Y-105032438D02*
X224857143Y-104984819D01*
X224857143Y-104984819D02*
X225095238Y-104984819D01*
X225095238Y-104984819D02*
X225190476Y-105032438D01*
X225190476Y-105032438D02*
X225238095Y-105080057D01*
X225238095Y-105080057D02*
X225285714Y-105175295D01*
X225285714Y-105175295D02*
X225285714Y-105270533D01*
X225285714Y-105270533D02*
X225238095Y-105413390D01*
X225238095Y-105413390D02*
X224666667Y-105984819D01*
X224666667Y-105984819D02*
X225285714Y-105984819D01*
X218738095Y-105954819D02*
X218738095Y-104954819D01*
X219309523Y-105954819D02*
X218880952Y-105383390D01*
X219309523Y-104954819D02*
X218738095Y-105526247D01*
X218383333Y-113954819D02*
X218050000Y-113478628D01*
X217811905Y-113954819D02*
X217811905Y-112954819D01*
X217811905Y-112954819D02*
X218192857Y-112954819D01*
X218192857Y-112954819D02*
X218288095Y-113002438D01*
X218288095Y-113002438D02*
X218335714Y-113050057D01*
X218335714Y-113050057D02*
X218383333Y-113145295D01*
X218383333Y-113145295D02*
X218383333Y-113288152D01*
X218383333Y-113288152D02*
X218335714Y-113383390D01*
X218335714Y-113383390D02*
X218288095Y-113431009D01*
X218288095Y-113431009D02*
X218192857Y-113478628D01*
X218192857Y-113478628D02*
X217811905Y-113478628D01*
X218764286Y-113050057D02*
X218811905Y-113002438D01*
X218811905Y-113002438D02*
X218907143Y-112954819D01*
X218907143Y-112954819D02*
X219145238Y-112954819D01*
X219145238Y-112954819D02*
X219240476Y-113002438D01*
X219240476Y-113002438D02*
X219288095Y-113050057D01*
X219288095Y-113050057D02*
X219335714Y-113145295D01*
X219335714Y-113145295D02*
X219335714Y-113240533D01*
X219335714Y-113240533D02*
X219288095Y-113383390D01*
X219288095Y-113383390D02*
X218716667Y-113954819D01*
X218716667Y-113954819D02*
X219335714Y-113954819D01*
X223169405Y-50484819D02*
X223169405Y-49484819D01*
X223169405Y-49484819D02*
X223407500Y-49484819D01*
X223407500Y-49484819D02*
X223550357Y-49532438D01*
X223550357Y-49532438D02*
X223645595Y-49627676D01*
X223645595Y-49627676D02*
X223693214Y-49722914D01*
X223693214Y-49722914D02*
X223740833Y-49913390D01*
X223740833Y-49913390D02*
X223740833Y-50056247D01*
X223740833Y-50056247D02*
X223693214Y-50246723D01*
X223693214Y-50246723D02*
X223645595Y-50341961D01*
X223645595Y-50341961D02*
X223550357Y-50437200D01*
X223550357Y-50437200D02*
X223407500Y-50484819D01*
X223407500Y-50484819D02*
X223169405Y-50484819D01*
X224074167Y-49484819D02*
X224740833Y-49484819D01*
X224740833Y-49484819D02*
X224312262Y-50484819D01*
X218565595Y-50854819D02*
X218565595Y-49854819D01*
X219137023Y-50854819D02*
X218708452Y-50283390D01*
X219137023Y-49854819D02*
X218565595Y-50426247D01*
X232050057Y-89095238D02*
X232002438Y-89190476D01*
X232002438Y-89190476D02*
X231907200Y-89285714D01*
X231907200Y-89285714D02*
X231764342Y-89428571D01*
X231764342Y-89428571D02*
X231716723Y-89523809D01*
X231716723Y-89523809D02*
X231716723Y-89619047D01*
X231954819Y-89571428D02*
X231907200Y-89666666D01*
X231907200Y-89666666D02*
X231811961Y-89761904D01*
X231811961Y-89761904D02*
X231621485Y-89809523D01*
X231621485Y-89809523D02*
X231288152Y-89809523D01*
X231288152Y-89809523D02*
X231097676Y-89761904D01*
X231097676Y-89761904D02*
X231002438Y-89666666D01*
X231002438Y-89666666D02*
X230954819Y-89571428D01*
X230954819Y-89571428D02*
X230954819Y-89380952D01*
X230954819Y-89380952D02*
X231002438Y-89285714D01*
X231002438Y-89285714D02*
X231097676Y-89190476D01*
X231097676Y-89190476D02*
X231288152Y-89142857D01*
X231288152Y-89142857D02*
X231621485Y-89142857D01*
X231621485Y-89142857D02*
X231811961Y-89190476D01*
X231811961Y-89190476D02*
X231907200Y-89285714D01*
X231907200Y-89285714D02*
X231954819Y-89380952D01*
X231954819Y-89380952D02*
X231954819Y-89571428D01*
X231288152Y-88285714D02*
X231954819Y-88285714D01*
X230907200Y-88523809D02*
X231621485Y-88761904D01*
X231621485Y-88761904D02*
X231621485Y-88142857D01*
X177274819Y-96333333D02*
X177989104Y-96333333D01*
X177989104Y-96333333D02*
X178131961Y-96380952D01*
X178131961Y-96380952D02*
X178227200Y-96476190D01*
X178227200Y-96476190D02*
X178274819Y-96619047D01*
X178274819Y-96619047D02*
X178274819Y-96714285D01*
X177608152Y-95428571D02*
X178274819Y-95428571D01*
X177227200Y-95666666D02*
X177941485Y-95904761D01*
X177941485Y-95904761D02*
X177941485Y-95285714D01*
X207634642Y-93644819D02*
X207301309Y-93168628D01*
X207063214Y-93644819D02*
X207063214Y-92644819D01*
X207063214Y-92644819D02*
X207444166Y-92644819D01*
X207444166Y-92644819D02*
X207539404Y-92692438D01*
X207539404Y-92692438D02*
X207587023Y-92740057D01*
X207587023Y-92740057D02*
X207634642Y-92835295D01*
X207634642Y-92835295D02*
X207634642Y-92978152D01*
X207634642Y-92978152D02*
X207587023Y-93073390D01*
X207587023Y-93073390D02*
X207539404Y-93121009D01*
X207539404Y-93121009D02*
X207444166Y-93168628D01*
X207444166Y-93168628D02*
X207063214Y-93168628D01*
X208587023Y-93644819D02*
X208015595Y-93644819D01*
X208301309Y-93644819D02*
X208301309Y-92644819D01*
X208301309Y-92644819D02*
X208206071Y-92787676D01*
X208206071Y-92787676D02*
X208110833Y-92882914D01*
X208110833Y-92882914D02*
X208015595Y-92930533D01*
X208967976Y-92740057D02*
X209015595Y-92692438D01*
X209015595Y-92692438D02*
X209110833Y-92644819D01*
X209110833Y-92644819D02*
X209348928Y-92644819D01*
X209348928Y-92644819D02*
X209444166Y-92692438D01*
X209444166Y-92692438D02*
X209491785Y-92740057D01*
X209491785Y-92740057D02*
X209539404Y-92835295D01*
X209539404Y-92835295D02*
X209539404Y-92930533D01*
X209539404Y-92930533D02*
X209491785Y-93073390D01*
X209491785Y-93073390D02*
X208920357Y-93644819D01*
X208920357Y-93644819D02*
X209539404Y-93644819D01*
X218333333Y-102284819D02*
X218000000Y-101808628D01*
X217761905Y-102284819D02*
X217761905Y-101284819D01*
X217761905Y-101284819D02*
X218142857Y-101284819D01*
X218142857Y-101284819D02*
X218238095Y-101332438D01*
X218238095Y-101332438D02*
X218285714Y-101380057D01*
X218285714Y-101380057D02*
X218333333Y-101475295D01*
X218333333Y-101475295D02*
X218333333Y-101618152D01*
X218333333Y-101618152D02*
X218285714Y-101713390D01*
X218285714Y-101713390D02*
X218238095Y-101761009D01*
X218238095Y-101761009D02*
X218142857Y-101808628D01*
X218142857Y-101808628D02*
X217761905Y-101808628D01*
X218666667Y-101284819D02*
X219285714Y-101284819D01*
X219285714Y-101284819D02*
X218952381Y-101665771D01*
X218952381Y-101665771D02*
X219095238Y-101665771D01*
X219095238Y-101665771D02*
X219190476Y-101713390D01*
X219190476Y-101713390D02*
X219238095Y-101761009D01*
X219238095Y-101761009D02*
X219285714Y-101856247D01*
X219285714Y-101856247D02*
X219285714Y-102094342D01*
X219285714Y-102094342D02*
X219238095Y-102189580D01*
X219238095Y-102189580D02*
X219190476Y-102237200D01*
X219190476Y-102237200D02*
X219095238Y-102284819D01*
X219095238Y-102284819D02*
X218809524Y-102284819D01*
X218809524Y-102284819D02*
X218714286Y-102237200D01*
X218714286Y-102237200D02*
X218666667Y-102189580D01*
X222798214Y-102284819D02*
X222798214Y-101284819D01*
X222798214Y-101284819D02*
X223036309Y-101284819D01*
X223036309Y-101284819D02*
X223179166Y-101332438D01*
X223179166Y-101332438D02*
X223274404Y-101427676D01*
X223274404Y-101427676D02*
X223322023Y-101522914D01*
X223322023Y-101522914D02*
X223369642Y-101713390D01*
X223369642Y-101713390D02*
X223369642Y-101856247D01*
X223369642Y-101856247D02*
X223322023Y-102046723D01*
X223322023Y-102046723D02*
X223274404Y-102141961D01*
X223274404Y-102141961D02*
X223179166Y-102237200D01*
X223179166Y-102237200D02*
X223036309Y-102284819D01*
X223036309Y-102284819D02*
X222798214Y-102284819D01*
X224322023Y-102284819D02*
X223750595Y-102284819D01*
X224036309Y-102284819D02*
X224036309Y-101284819D01*
X224036309Y-101284819D02*
X223941071Y-101427676D01*
X223941071Y-101427676D02*
X223845833Y-101522914D01*
X223845833Y-101522914D02*
X223750595Y-101570533D01*
X225274404Y-102284819D02*
X224702976Y-102284819D01*
X224988690Y-102284819D02*
X224988690Y-101284819D01*
X224988690Y-101284819D02*
X224893452Y-101427676D01*
X224893452Y-101427676D02*
X224798214Y-101522914D01*
X224798214Y-101522914D02*
X224702976Y-101570533D01*
X232050057Y-68095238D02*
X232002438Y-68190476D01*
X232002438Y-68190476D02*
X231907200Y-68285714D01*
X231907200Y-68285714D02*
X231764342Y-68428571D01*
X231764342Y-68428571D02*
X231716723Y-68523809D01*
X231716723Y-68523809D02*
X231716723Y-68619047D01*
X231954819Y-68571428D02*
X231907200Y-68666666D01*
X231907200Y-68666666D02*
X231811961Y-68761904D01*
X231811961Y-68761904D02*
X231621485Y-68809523D01*
X231621485Y-68809523D02*
X231288152Y-68809523D01*
X231288152Y-68809523D02*
X231097676Y-68761904D01*
X231097676Y-68761904D02*
X231002438Y-68666666D01*
X231002438Y-68666666D02*
X230954819Y-68571428D01*
X230954819Y-68571428D02*
X230954819Y-68380952D01*
X230954819Y-68380952D02*
X231002438Y-68285714D01*
X231002438Y-68285714D02*
X231097676Y-68190476D01*
X231097676Y-68190476D02*
X231288152Y-68142857D01*
X231288152Y-68142857D02*
X231621485Y-68142857D01*
X231621485Y-68142857D02*
X231811961Y-68190476D01*
X231811961Y-68190476D02*
X231907200Y-68285714D01*
X231907200Y-68285714D02*
X231954819Y-68380952D01*
X231954819Y-68380952D02*
X231954819Y-68571428D01*
X230954819Y-67285714D02*
X230954819Y-67476190D01*
X230954819Y-67476190D02*
X231002438Y-67571428D01*
X231002438Y-67571428D02*
X231050057Y-67619047D01*
X231050057Y-67619047D02*
X231192914Y-67714285D01*
X231192914Y-67714285D02*
X231383390Y-67761904D01*
X231383390Y-67761904D02*
X231764342Y-67761904D01*
X231764342Y-67761904D02*
X231859580Y-67714285D01*
X231859580Y-67714285D02*
X231907200Y-67666666D01*
X231907200Y-67666666D02*
X231954819Y-67571428D01*
X231954819Y-67571428D02*
X231954819Y-67380952D01*
X231954819Y-67380952D02*
X231907200Y-67285714D01*
X231907200Y-67285714D02*
X231859580Y-67238095D01*
X231859580Y-67238095D02*
X231764342Y-67190476D01*
X231764342Y-67190476D02*
X231526247Y-67190476D01*
X231526247Y-67190476D02*
X231431009Y-67238095D01*
X231431009Y-67238095D02*
X231383390Y-67285714D01*
X231383390Y-67285714D02*
X231335771Y-67380952D01*
X231335771Y-67380952D02*
X231335771Y-67571428D01*
X231335771Y-67571428D02*
X231383390Y-67666666D01*
X231383390Y-67666666D02*
X231431009Y-67714285D01*
X231431009Y-67714285D02*
X231526247Y-67761904D01*
X247602319Y-77333333D02*
X248316604Y-77333333D01*
X248316604Y-77333333D02*
X248459461Y-77380952D01*
X248459461Y-77380952D02*
X248554700Y-77476190D01*
X248554700Y-77476190D02*
X248602319Y-77619047D01*
X248602319Y-77619047D02*
X248602319Y-77714285D01*
X248602319Y-76809523D02*
X248602319Y-76619047D01*
X248602319Y-76619047D02*
X248554700Y-76523809D01*
X248554700Y-76523809D02*
X248507080Y-76476190D01*
X248507080Y-76476190D02*
X248364223Y-76380952D01*
X248364223Y-76380952D02*
X248173747Y-76333333D01*
X248173747Y-76333333D02*
X247792795Y-76333333D01*
X247792795Y-76333333D02*
X247697557Y-76380952D01*
X247697557Y-76380952D02*
X247649938Y-76428571D01*
X247649938Y-76428571D02*
X247602319Y-76523809D01*
X247602319Y-76523809D02*
X247602319Y-76714285D01*
X247602319Y-76714285D02*
X247649938Y-76809523D01*
X247649938Y-76809523D02*
X247697557Y-76857142D01*
X247697557Y-76857142D02*
X247792795Y-76904761D01*
X247792795Y-76904761D02*
X248030890Y-76904761D01*
X248030890Y-76904761D02*
X248126128Y-76857142D01*
X248126128Y-76857142D02*
X248173747Y-76809523D01*
X248173747Y-76809523D02*
X248221366Y-76714285D01*
X248221366Y-76714285D02*
X248221366Y-76523809D01*
X248221366Y-76523809D02*
X248173747Y-76428571D01*
X248173747Y-76428571D02*
X248126128Y-76380952D01*
X248126128Y-76380952D02*
X248030890Y-76333333D01*
X222798214Y-47284819D02*
X222798214Y-46284819D01*
X222798214Y-46284819D02*
X223036309Y-46284819D01*
X223036309Y-46284819D02*
X223179166Y-46332438D01*
X223179166Y-46332438D02*
X223274404Y-46427676D01*
X223274404Y-46427676D02*
X223322023Y-46522914D01*
X223322023Y-46522914D02*
X223369642Y-46713390D01*
X223369642Y-46713390D02*
X223369642Y-46856247D01*
X223369642Y-46856247D02*
X223322023Y-47046723D01*
X223322023Y-47046723D02*
X223274404Y-47141961D01*
X223274404Y-47141961D02*
X223179166Y-47237200D01*
X223179166Y-47237200D02*
X223036309Y-47284819D01*
X223036309Y-47284819D02*
X222798214Y-47284819D01*
X224322023Y-47284819D02*
X223750595Y-47284819D01*
X224036309Y-47284819D02*
X224036309Y-46284819D01*
X224036309Y-46284819D02*
X223941071Y-46427676D01*
X223941071Y-46427676D02*
X223845833Y-46522914D01*
X223845833Y-46522914D02*
X223750595Y-46570533D01*
X225179166Y-46284819D02*
X224988690Y-46284819D01*
X224988690Y-46284819D02*
X224893452Y-46332438D01*
X224893452Y-46332438D02*
X224845833Y-46380057D01*
X224845833Y-46380057D02*
X224750595Y-46522914D01*
X224750595Y-46522914D02*
X224702976Y-46713390D01*
X224702976Y-46713390D02*
X224702976Y-47094342D01*
X224702976Y-47094342D02*
X224750595Y-47189580D01*
X224750595Y-47189580D02*
X224798214Y-47237200D01*
X224798214Y-47237200D02*
X224893452Y-47284819D01*
X224893452Y-47284819D02*
X225083928Y-47284819D01*
X225083928Y-47284819D02*
X225179166Y-47237200D01*
X225179166Y-47237200D02*
X225226785Y-47189580D01*
X225226785Y-47189580D02*
X225274404Y-47094342D01*
X225274404Y-47094342D02*
X225274404Y-46856247D01*
X225274404Y-46856247D02*
X225226785Y-46761009D01*
X225226785Y-46761009D02*
X225179166Y-46713390D01*
X225179166Y-46713390D02*
X225083928Y-46665771D01*
X225083928Y-46665771D02*
X224893452Y-46665771D01*
X224893452Y-46665771D02*
X224798214Y-46713390D01*
X224798214Y-46713390D02*
X224750595Y-46761009D01*
X224750595Y-46761009D02*
X224702976Y-46856247D01*
X223761905Y-116984819D02*
X223761905Y-115984819D01*
X223761905Y-115984819D02*
X224000000Y-115984819D01*
X224000000Y-115984819D02*
X224142857Y-116032438D01*
X224142857Y-116032438D02*
X224238095Y-116127676D01*
X224238095Y-116127676D02*
X224285714Y-116222914D01*
X224285714Y-116222914D02*
X224333333Y-116413390D01*
X224333333Y-116413390D02*
X224333333Y-116556247D01*
X224333333Y-116556247D02*
X224285714Y-116746723D01*
X224285714Y-116746723D02*
X224238095Y-116841961D01*
X224238095Y-116841961D02*
X224142857Y-116937200D01*
X224142857Y-116937200D02*
X224000000Y-116984819D01*
X224000000Y-116984819D02*
X223761905Y-116984819D01*
X225285714Y-116984819D02*
X224714286Y-116984819D01*
X225000000Y-116984819D02*
X225000000Y-115984819D01*
X225000000Y-115984819D02*
X224904762Y-116127676D01*
X224904762Y-116127676D02*
X224809524Y-116222914D01*
X224809524Y-116222914D02*
X224714286Y-116270533D01*
X218738095Y-116954819D02*
X218738095Y-115954819D01*
X219309523Y-116954819D02*
X218880952Y-116383390D01*
X219309523Y-115954819D02*
X218738095Y-116526247D01*
X207857142Y-49954819D02*
X207523809Y-49478628D01*
X207285714Y-49954819D02*
X207285714Y-48954819D01*
X207285714Y-48954819D02*
X207666666Y-48954819D01*
X207666666Y-48954819D02*
X207761904Y-49002438D01*
X207761904Y-49002438D02*
X207809523Y-49050057D01*
X207809523Y-49050057D02*
X207857142Y-49145295D01*
X207857142Y-49145295D02*
X207857142Y-49288152D01*
X207857142Y-49288152D02*
X207809523Y-49383390D01*
X207809523Y-49383390D02*
X207761904Y-49431009D01*
X207761904Y-49431009D02*
X207666666Y-49478628D01*
X207666666Y-49478628D02*
X207285714Y-49478628D01*
X208809523Y-49954819D02*
X208238095Y-49954819D01*
X208523809Y-49954819D02*
X208523809Y-48954819D01*
X208523809Y-48954819D02*
X208428571Y-49097676D01*
X208428571Y-49097676D02*
X208333333Y-49192914D01*
X208333333Y-49192914D02*
X208238095Y-49240533D01*
X209666666Y-48954819D02*
X209476190Y-48954819D01*
X209476190Y-48954819D02*
X209380952Y-49002438D01*
X209380952Y-49002438D02*
X209333333Y-49050057D01*
X209333333Y-49050057D02*
X209238095Y-49192914D01*
X209238095Y-49192914D02*
X209190476Y-49383390D01*
X209190476Y-49383390D02*
X209190476Y-49764342D01*
X209190476Y-49764342D02*
X209238095Y-49859580D01*
X209238095Y-49859580D02*
X209285714Y-49907200D01*
X209285714Y-49907200D02*
X209380952Y-49954819D01*
X209380952Y-49954819D02*
X209571428Y-49954819D01*
X209571428Y-49954819D02*
X209666666Y-49907200D01*
X209666666Y-49907200D02*
X209714285Y-49859580D01*
X209714285Y-49859580D02*
X209761904Y-49764342D01*
X209761904Y-49764342D02*
X209761904Y-49526247D01*
X209761904Y-49526247D02*
X209714285Y-49431009D01*
X209714285Y-49431009D02*
X209666666Y-49383390D01*
X209666666Y-49383390D02*
X209571428Y-49335771D01*
X209571428Y-49335771D02*
X209380952Y-49335771D01*
X209380952Y-49335771D02*
X209285714Y-49383390D01*
X209285714Y-49383390D02*
X209238095Y-49431009D01*
X209238095Y-49431009D02*
X209190476Y-49526247D01*
X218283333Y-47284819D02*
X217950000Y-46808628D01*
X217711905Y-47284819D02*
X217711905Y-46284819D01*
X217711905Y-46284819D02*
X218092857Y-46284819D01*
X218092857Y-46284819D02*
X218188095Y-46332438D01*
X218188095Y-46332438D02*
X218235714Y-46380057D01*
X218235714Y-46380057D02*
X218283333Y-46475295D01*
X218283333Y-46475295D02*
X218283333Y-46618152D01*
X218283333Y-46618152D02*
X218235714Y-46713390D01*
X218235714Y-46713390D02*
X218188095Y-46761009D01*
X218188095Y-46761009D02*
X218092857Y-46808628D01*
X218092857Y-46808628D02*
X217711905Y-46808628D01*
X218854762Y-46713390D02*
X218759524Y-46665771D01*
X218759524Y-46665771D02*
X218711905Y-46618152D01*
X218711905Y-46618152D02*
X218664286Y-46522914D01*
X218664286Y-46522914D02*
X218664286Y-46475295D01*
X218664286Y-46475295D02*
X218711905Y-46380057D01*
X218711905Y-46380057D02*
X218759524Y-46332438D01*
X218759524Y-46332438D02*
X218854762Y-46284819D01*
X218854762Y-46284819D02*
X219045238Y-46284819D01*
X219045238Y-46284819D02*
X219140476Y-46332438D01*
X219140476Y-46332438D02*
X219188095Y-46380057D01*
X219188095Y-46380057D02*
X219235714Y-46475295D01*
X219235714Y-46475295D02*
X219235714Y-46522914D01*
X219235714Y-46522914D02*
X219188095Y-46618152D01*
X219188095Y-46618152D02*
X219140476Y-46665771D01*
X219140476Y-46665771D02*
X219045238Y-46713390D01*
X219045238Y-46713390D02*
X218854762Y-46713390D01*
X218854762Y-46713390D02*
X218759524Y-46761009D01*
X218759524Y-46761009D02*
X218711905Y-46808628D01*
X218711905Y-46808628D02*
X218664286Y-46903866D01*
X218664286Y-46903866D02*
X218664286Y-47094342D01*
X218664286Y-47094342D02*
X218711905Y-47189580D01*
X218711905Y-47189580D02*
X218759524Y-47237200D01*
X218759524Y-47237200D02*
X218854762Y-47284819D01*
X218854762Y-47284819D02*
X219045238Y-47284819D01*
X219045238Y-47284819D02*
X219140476Y-47237200D01*
X219140476Y-47237200D02*
X219188095Y-47189580D01*
X219188095Y-47189580D02*
X219235714Y-47094342D01*
X219235714Y-47094342D02*
X219235714Y-46903866D01*
X219235714Y-46903866D02*
X219188095Y-46808628D01*
X219188095Y-46808628D02*
X219140476Y-46761009D01*
X219140476Y-46761009D02*
X219045238Y-46713390D01*
X191341030Y-76285722D02*
X191341030Y-77613603D01*
X191341030Y-77613603D02*
X191419140Y-77769824D01*
X191419140Y-77769824D02*
X191497251Y-77847935D01*
X191497251Y-77847935D02*
X191653472Y-77926045D01*
X191653472Y-77926045D02*
X191965915Y-77926045D01*
X191965915Y-77926045D02*
X192122136Y-77847935D01*
X192122136Y-77847935D02*
X192200246Y-77769824D01*
X192200246Y-77769824D02*
X192278357Y-77613603D01*
X192278357Y-77613603D02*
X192278357Y-76285722D01*
X192981353Y-76441943D02*
X193059464Y-76363833D01*
X193059464Y-76363833D02*
X193215685Y-76285722D01*
X193215685Y-76285722D02*
X193606238Y-76285722D01*
X193606238Y-76285722D02*
X193762459Y-76363833D01*
X193762459Y-76363833D02*
X193840570Y-76441943D01*
X193840570Y-76441943D02*
X193918680Y-76598165D01*
X193918680Y-76598165D02*
X193918680Y-76754386D01*
X193918680Y-76754386D02*
X193840570Y-76988718D01*
X193840570Y-76988718D02*
X192903242Y-77926045D01*
X192903242Y-77926045D02*
X193918680Y-77926045D01*
X222785714Y-69454819D02*
X222785714Y-68454819D01*
X222785714Y-68454819D02*
X223023809Y-68454819D01*
X223023809Y-68454819D02*
X223166666Y-68502438D01*
X223166666Y-68502438D02*
X223261904Y-68597676D01*
X223261904Y-68597676D02*
X223309523Y-68692914D01*
X223309523Y-68692914D02*
X223357142Y-68883390D01*
X223357142Y-68883390D02*
X223357142Y-69026247D01*
X223357142Y-69026247D02*
X223309523Y-69216723D01*
X223309523Y-69216723D02*
X223261904Y-69311961D01*
X223261904Y-69311961D02*
X223166666Y-69407200D01*
X223166666Y-69407200D02*
X223023809Y-69454819D01*
X223023809Y-69454819D02*
X222785714Y-69454819D01*
X224309523Y-69454819D02*
X223738095Y-69454819D01*
X224023809Y-69454819D02*
X224023809Y-68454819D01*
X224023809Y-68454819D02*
X223928571Y-68597676D01*
X223928571Y-68597676D02*
X223833333Y-68692914D01*
X223833333Y-68692914D02*
X223738095Y-68740533D01*
X225166666Y-68788152D02*
X225166666Y-69454819D01*
X224928571Y-68407200D02*
X224690476Y-69121485D01*
X224690476Y-69121485D02*
X225309523Y-69121485D01*
X247602319Y-99333333D02*
X248316604Y-99333333D01*
X248316604Y-99333333D02*
X248459461Y-99380952D01*
X248459461Y-99380952D02*
X248554700Y-99476190D01*
X248554700Y-99476190D02*
X248602319Y-99619047D01*
X248602319Y-99619047D02*
X248602319Y-99714285D01*
X247602319Y-98952380D02*
X247602319Y-98285714D01*
X247602319Y-98285714D02*
X248602319Y-98714285D01*
X232602319Y-60809523D02*
X233316604Y-60809523D01*
X233316604Y-60809523D02*
X233459461Y-60857142D01*
X233459461Y-60857142D02*
X233554700Y-60952380D01*
X233554700Y-60952380D02*
X233602319Y-61095237D01*
X233602319Y-61095237D02*
X233602319Y-61190475D01*
X233602319Y-59809523D02*
X233602319Y-60380951D01*
X233602319Y-60095237D02*
X232602319Y-60095237D01*
X232602319Y-60095237D02*
X232745176Y-60190475D01*
X232745176Y-60190475D02*
X232840414Y-60285713D01*
X232840414Y-60285713D02*
X232888033Y-60380951D01*
X233602319Y-58857142D02*
X233602319Y-59428570D01*
X233602319Y-59142856D02*
X232602319Y-59142856D01*
X232602319Y-59142856D02*
X232745176Y-59238094D01*
X232745176Y-59238094D02*
X232840414Y-59333332D01*
X232840414Y-59333332D02*
X232888033Y-59428570D01*
X223169405Y-94484819D02*
X223169405Y-93484819D01*
X223169405Y-93484819D02*
X223407500Y-93484819D01*
X223407500Y-93484819D02*
X223550357Y-93532438D01*
X223550357Y-93532438D02*
X223645595Y-93627676D01*
X223645595Y-93627676D02*
X223693214Y-93722914D01*
X223693214Y-93722914D02*
X223740833Y-93913390D01*
X223740833Y-93913390D02*
X223740833Y-94056247D01*
X223740833Y-94056247D02*
X223693214Y-94246723D01*
X223693214Y-94246723D02*
X223645595Y-94341961D01*
X223645595Y-94341961D02*
X223550357Y-94437200D01*
X223550357Y-94437200D02*
X223407500Y-94484819D01*
X223407500Y-94484819D02*
X223169405Y-94484819D01*
X224074167Y-93484819D02*
X224693214Y-93484819D01*
X224693214Y-93484819D02*
X224359881Y-93865771D01*
X224359881Y-93865771D02*
X224502738Y-93865771D01*
X224502738Y-93865771D02*
X224597976Y-93913390D01*
X224597976Y-93913390D02*
X224645595Y-93961009D01*
X224645595Y-93961009D02*
X224693214Y-94056247D01*
X224693214Y-94056247D02*
X224693214Y-94294342D01*
X224693214Y-94294342D02*
X224645595Y-94389580D01*
X224645595Y-94389580D02*
X224597976Y-94437200D01*
X224597976Y-94437200D02*
X224502738Y-94484819D01*
X224502738Y-94484819D02*
X224217024Y-94484819D01*
X224217024Y-94484819D02*
X224121786Y-94437200D01*
X224121786Y-94437200D02*
X224074167Y-94389580D01*
X218565595Y-94854819D02*
X218565595Y-93854819D01*
X219137023Y-94854819D02*
X218708452Y-94283390D01*
X219137023Y-93854819D02*
X218565595Y-94426247D01*
X247602319Y-121833333D02*
X248316604Y-121833333D01*
X248316604Y-121833333D02*
X248459461Y-121880952D01*
X248459461Y-121880952D02*
X248554700Y-121976190D01*
X248554700Y-121976190D02*
X248602319Y-122119047D01*
X248602319Y-122119047D02*
X248602319Y-122214285D01*
X247602319Y-120880952D02*
X247602319Y-121357142D01*
X247602319Y-121357142D02*
X248078509Y-121404761D01*
X248078509Y-121404761D02*
X248030890Y-121357142D01*
X248030890Y-121357142D02*
X247983271Y-121261904D01*
X247983271Y-121261904D02*
X247983271Y-121023809D01*
X247983271Y-121023809D02*
X248030890Y-120928571D01*
X248030890Y-120928571D02*
X248078509Y-120880952D01*
X248078509Y-120880952D02*
X248173747Y-120833333D01*
X248173747Y-120833333D02*
X248411842Y-120833333D01*
X248411842Y-120833333D02*
X248507080Y-120880952D01*
X248507080Y-120880952D02*
X248554700Y-120928571D01*
X248554700Y-120928571D02*
X248602319Y-121023809D01*
X248602319Y-121023809D02*
X248602319Y-121261904D01*
X248602319Y-121261904D02*
X248554700Y-121357142D01*
X248554700Y-121357142D02*
X248507080Y-121404761D01*
X232050057Y-45595238D02*
X232002438Y-45690476D01*
X232002438Y-45690476D02*
X231907200Y-45785714D01*
X231907200Y-45785714D02*
X231764342Y-45928571D01*
X231764342Y-45928571D02*
X231716723Y-46023809D01*
X231716723Y-46023809D02*
X231716723Y-46119047D01*
X231954819Y-46071428D02*
X231907200Y-46166666D01*
X231907200Y-46166666D02*
X231811961Y-46261904D01*
X231811961Y-46261904D02*
X231621485Y-46309523D01*
X231621485Y-46309523D02*
X231288152Y-46309523D01*
X231288152Y-46309523D02*
X231097676Y-46261904D01*
X231097676Y-46261904D02*
X231002438Y-46166666D01*
X231002438Y-46166666D02*
X230954819Y-46071428D01*
X230954819Y-46071428D02*
X230954819Y-45880952D01*
X230954819Y-45880952D02*
X231002438Y-45785714D01*
X231002438Y-45785714D02*
X231097676Y-45690476D01*
X231097676Y-45690476D02*
X231288152Y-45642857D01*
X231288152Y-45642857D02*
X231621485Y-45642857D01*
X231621485Y-45642857D02*
X231811961Y-45690476D01*
X231811961Y-45690476D02*
X231907200Y-45785714D01*
X231907200Y-45785714D02*
X231954819Y-45880952D01*
X231954819Y-45880952D02*
X231954819Y-46071428D01*
X231383390Y-45071428D02*
X231335771Y-45166666D01*
X231335771Y-45166666D02*
X231288152Y-45214285D01*
X231288152Y-45214285D02*
X231192914Y-45261904D01*
X231192914Y-45261904D02*
X231145295Y-45261904D01*
X231145295Y-45261904D02*
X231050057Y-45214285D01*
X231050057Y-45214285D02*
X231002438Y-45166666D01*
X231002438Y-45166666D02*
X230954819Y-45071428D01*
X230954819Y-45071428D02*
X230954819Y-44880952D01*
X230954819Y-44880952D02*
X231002438Y-44785714D01*
X231002438Y-44785714D02*
X231050057Y-44738095D01*
X231050057Y-44738095D02*
X231145295Y-44690476D01*
X231145295Y-44690476D02*
X231192914Y-44690476D01*
X231192914Y-44690476D02*
X231288152Y-44738095D01*
X231288152Y-44738095D02*
X231335771Y-44785714D01*
X231335771Y-44785714D02*
X231383390Y-44880952D01*
X231383390Y-44880952D02*
X231383390Y-45071428D01*
X231383390Y-45071428D02*
X231431009Y-45166666D01*
X231431009Y-45166666D02*
X231478628Y-45214285D01*
X231478628Y-45214285D02*
X231573866Y-45261904D01*
X231573866Y-45261904D02*
X231764342Y-45261904D01*
X231764342Y-45261904D02*
X231859580Y-45214285D01*
X231859580Y-45214285D02*
X231907200Y-45166666D01*
X231907200Y-45166666D02*
X231954819Y-45071428D01*
X231954819Y-45071428D02*
X231954819Y-44880952D01*
X231954819Y-44880952D02*
X231907200Y-44785714D01*
X231907200Y-44785714D02*
X231859580Y-44738095D01*
X231859580Y-44738095D02*
X231764342Y-44690476D01*
X231764342Y-44690476D02*
X231573866Y-44690476D01*
X231573866Y-44690476D02*
X231478628Y-44738095D01*
X231478628Y-44738095D02*
X231431009Y-44785714D01*
X231431009Y-44785714D02*
X231383390Y-44880952D01*
X222798214Y-80284819D02*
X222798214Y-79284819D01*
X222798214Y-79284819D02*
X223036309Y-79284819D01*
X223036309Y-79284819D02*
X223179166Y-79332438D01*
X223179166Y-79332438D02*
X223274404Y-79427676D01*
X223274404Y-79427676D02*
X223322023Y-79522914D01*
X223322023Y-79522914D02*
X223369642Y-79713390D01*
X223369642Y-79713390D02*
X223369642Y-79856247D01*
X223369642Y-79856247D02*
X223322023Y-80046723D01*
X223322023Y-80046723D02*
X223274404Y-80141961D01*
X223274404Y-80141961D02*
X223179166Y-80237200D01*
X223179166Y-80237200D02*
X223036309Y-80284819D01*
X223036309Y-80284819D02*
X222798214Y-80284819D01*
X224322023Y-80284819D02*
X223750595Y-80284819D01*
X224036309Y-80284819D02*
X224036309Y-79284819D01*
X224036309Y-79284819D02*
X223941071Y-79427676D01*
X223941071Y-79427676D02*
X223845833Y-79522914D01*
X223845833Y-79522914D02*
X223750595Y-79570533D01*
X224655357Y-79284819D02*
X225274404Y-79284819D01*
X225274404Y-79284819D02*
X224941071Y-79665771D01*
X224941071Y-79665771D02*
X225083928Y-79665771D01*
X225083928Y-79665771D02*
X225179166Y-79713390D01*
X225179166Y-79713390D02*
X225226785Y-79761009D01*
X225226785Y-79761009D02*
X225274404Y-79856247D01*
X225274404Y-79856247D02*
X225274404Y-80094342D01*
X225274404Y-80094342D02*
X225226785Y-80189580D01*
X225226785Y-80189580D02*
X225179166Y-80237200D01*
X225179166Y-80237200D02*
X225083928Y-80284819D01*
X225083928Y-80284819D02*
X224798214Y-80284819D01*
X224798214Y-80284819D02*
X224702976Y-80237200D01*
X224702976Y-80237200D02*
X224655357Y-80189580D01*
X218383333Y-58284819D02*
X218050000Y-57808628D01*
X217811905Y-58284819D02*
X217811905Y-57284819D01*
X217811905Y-57284819D02*
X218192857Y-57284819D01*
X218192857Y-57284819D02*
X218288095Y-57332438D01*
X218288095Y-57332438D02*
X218335714Y-57380057D01*
X218335714Y-57380057D02*
X218383333Y-57475295D01*
X218383333Y-57475295D02*
X218383333Y-57618152D01*
X218383333Y-57618152D02*
X218335714Y-57713390D01*
X218335714Y-57713390D02*
X218288095Y-57761009D01*
X218288095Y-57761009D02*
X218192857Y-57808628D01*
X218192857Y-57808628D02*
X217811905Y-57808628D01*
X218716667Y-57284819D02*
X219383333Y-57284819D01*
X219383333Y-57284819D02*
X218954762Y-58284819D01*
X223169405Y-39484819D02*
X223169405Y-38484819D01*
X223169405Y-38484819D02*
X223407500Y-38484819D01*
X223407500Y-38484819D02*
X223550357Y-38532438D01*
X223550357Y-38532438D02*
X223645595Y-38627676D01*
X223645595Y-38627676D02*
X223693214Y-38722914D01*
X223693214Y-38722914D02*
X223740833Y-38913390D01*
X223740833Y-38913390D02*
X223740833Y-39056247D01*
X223740833Y-39056247D02*
X223693214Y-39246723D01*
X223693214Y-39246723D02*
X223645595Y-39341961D01*
X223645595Y-39341961D02*
X223550357Y-39437200D01*
X223550357Y-39437200D02*
X223407500Y-39484819D01*
X223407500Y-39484819D02*
X223169405Y-39484819D01*
X224312262Y-38913390D02*
X224217024Y-38865771D01*
X224217024Y-38865771D02*
X224169405Y-38818152D01*
X224169405Y-38818152D02*
X224121786Y-38722914D01*
X224121786Y-38722914D02*
X224121786Y-38675295D01*
X224121786Y-38675295D02*
X224169405Y-38580057D01*
X224169405Y-38580057D02*
X224217024Y-38532438D01*
X224217024Y-38532438D02*
X224312262Y-38484819D01*
X224312262Y-38484819D02*
X224502738Y-38484819D01*
X224502738Y-38484819D02*
X224597976Y-38532438D01*
X224597976Y-38532438D02*
X224645595Y-38580057D01*
X224645595Y-38580057D02*
X224693214Y-38675295D01*
X224693214Y-38675295D02*
X224693214Y-38722914D01*
X224693214Y-38722914D02*
X224645595Y-38818152D01*
X224645595Y-38818152D02*
X224597976Y-38865771D01*
X224597976Y-38865771D02*
X224502738Y-38913390D01*
X224502738Y-38913390D02*
X224312262Y-38913390D01*
X224312262Y-38913390D02*
X224217024Y-38961009D01*
X224217024Y-38961009D02*
X224169405Y-39008628D01*
X224169405Y-39008628D02*
X224121786Y-39103866D01*
X224121786Y-39103866D02*
X224121786Y-39294342D01*
X224121786Y-39294342D02*
X224169405Y-39389580D01*
X224169405Y-39389580D02*
X224217024Y-39437200D01*
X224217024Y-39437200D02*
X224312262Y-39484819D01*
X224312262Y-39484819D02*
X224502738Y-39484819D01*
X224502738Y-39484819D02*
X224597976Y-39437200D01*
X224597976Y-39437200D02*
X224645595Y-39389580D01*
X224645595Y-39389580D02*
X224693214Y-39294342D01*
X224693214Y-39294342D02*
X224693214Y-39103866D01*
X224693214Y-39103866D02*
X224645595Y-39008628D01*
X224645595Y-39008628D02*
X224597976Y-38961009D01*
X224597976Y-38961009D02*
X224502738Y-38913390D01*
X218565595Y-39854819D02*
X218565595Y-38854819D01*
X219137023Y-39854819D02*
X218708452Y-39283390D01*
X219137023Y-38854819D02*
X218565595Y-39426247D01*
X232050057Y-111095238D02*
X232002438Y-111190476D01*
X232002438Y-111190476D02*
X231907200Y-111285714D01*
X231907200Y-111285714D02*
X231764342Y-111428571D01*
X231764342Y-111428571D02*
X231716723Y-111523809D01*
X231716723Y-111523809D02*
X231716723Y-111619047D01*
X231954819Y-111571428D02*
X231907200Y-111666666D01*
X231907200Y-111666666D02*
X231811961Y-111761904D01*
X231811961Y-111761904D02*
X231621485Y-111809523D01*
X231621485Y-111809523D02*
X231288152Y-111809523D01*
X231288152Y-111809523D02*
X231097676Y-111761904D01*
X231097676Y-111761904D02*
X231002438Y-111666666D01*
X231002438Y-111666666D02*
X230954819Y-111571428D01*
X230954819Y-111571428D02*
X230954819Y-111380952D01*
X230954819Y-111380952D02*
X231002438Y-111285714D01*
X231002438Y-111285714D02*
X231097676Y-111190476D01*
X231097676Y-111190476D02*
X231288152Y-111142857D01*
X231288152Y-111142857D02*
X231621485Y-111142857D01*
X231621485Y-111142857D02*
X231811961Y-111190476D01*
X231811961Y-111190476D02*
X231907200Y-111285714D01*
X231907200Y-111285714D02*
X231954819Y-111380952D01*
X231954819Y-111380952D02*
X231954819Y-111571428D01*
X231050057Y-110761904D02*
X231002438Y-110714285D01*
X231002438Y-110714285D02*
X230954819Y-110619047D01*
X230954819Y-110619047D02*
X230954819Y-110380952D01*
X230954819Y-110380952D02*
X231002438Y-110285714D01*
X231002438Y-110285714D02*
X231050057Y-110238095D01*
X231050057Y-110238095D02*
X231145295Y-110190476D01*
X231145295Y-110190476D02*
X231240533Y-110190476D01*
X231240533Y-110190476D02*
X231383390Y-110238095D01*
X231383390Y-110238095D02*
X231954819Y-110809523D01*
X231954819Y-110809523D02*
X231954819Y-110190476D01*
X232050057Y-78095238D02*
X232002438Y-78190476D01*
X232002438Y-78190476D02*
X231907200Y-78285714D01*
X231907200Y-78285714D02*
X231764342Y-78428571D01*
X231764342Y-78428571D02*
X231716723Y-78523809D01*
X231716723Y-78523809D02*
X231716723Y-78619047D01*
X231954819Y-78571428D02*
X231907200Y-78666666D01*
X231907200Y-78666666D02*
X231811961Y-78761904D01*
X231811961Y-78761904D02*
X231621485Y-78809523D01*
X231621485Y-78809523D02*
X231288152Y-78809523D01*
X231288152Y-78809523D02*
X231097676Y-78761904D01*
X231097676Y-78761904D02*
X231002438Y-78666666D01*
X231002438Y-78666666D02*
X230954819Y-78571428D01*
X230954819Y-78571428D02*
X230954819Y-78380952D01*
X230954819Y-78380952D02*
X231002438Y-78285714D01*
X231002438Y-78285714D02*
X231097676Y-78190476D01*
X231097676Y-78190476D02*
X231288152Y-78142857D01*
X231288152Y-78142857D02*
X231621485Y-78142857D01*
X231621485Y-78142857D02*
X231811961Y-78190476D01*
X231811961Y-78190476D02*
X231907200Y-78285714D01*
X231907200Y-78285714D02*
X231954819Y-78380952D01*
X231954819Y-78380952D02*
X231954819Y-78571428D01*
X230954819Y-77238095D02*
X230954819Y-77714285D01*
X230954819Y-77714285D02*
X231431009Y-77761904D01*
X231431009Y-77761904D02*
X231383390Y-77714285D01*
X231383390Y-77714285D02*
X231335771Y-77619047D01*
X231335771Y-77619047D02*
X231335771Y-77380952D01*
X231335771Y-77380952D02*
X231383390Y-77285714D01*
X231383390Y-77285714D02*
X231431009Y-77238095D01*
X231431009Y-77238095D02*
X231526247Y-77190476D01*
X231526247Y-77190476D02*
X231764342Y-77190476D01*
X231764342Y-77190476D02*
X231859580Y-77238095D01*
X231859580Y-77238095D02*
X231907200Y-77285714D01*
X231907200Y-77285714D02*
X231954819Y-77380952D01*
X231954819Y-77380952D02*
X231954819Y-77619047D01*
X231954819Y-77619047D02*
X231907200Y-77714285D01*
X231907200Y-77714285D02*
X231859580Y-77761904D01*
X218215833Y-80404819D02*
X217882500Y-79928628D01*
X217644405Y-80404819D02*
X217644405Y-79404819D01*
X217644405Y-79404819D02*
X218025357Y-79404819D01*
X218025357Y-79404819D02*
X218120595Y-79452438D01*
X218120595Y-79452438D02*
X218168214Y-79500057D01*
X218168214Y-79500057D02*
X218215833Y-79595295D01*
X218215833Y-79595295D02*
X218215833Y-79738152D01*
X218215833Y-79738152D02*
X218168214Y-79833390D01*
X218168214Y-79833390D02*
X218120595Y-79881009D01*
X218120595Y-79881009D02*
X218025357Y-79928628D01*
X218025357Y-79928628D02*
X217644405Y-79928628D01*
X219120595Y-79404819D02*
X218644405Y-79404819D01*
X218644405Y-79404819D02*
X218596786Y-79881009D01*
X218596786Y-79881009D02*
X218644405Y-79833390D01*
X218644405Y-79833390D02*
X218739643Y-79785771D01*
X218739643Y-79785771D02*
X218977738Y-79785771D01*
X218977738Y-79785771D02*
X219072976Y-79833390D01*
X219072976Y-79833390D02*
X219120595Y-79881009D01*
X219120595Y-79881009D02*
X219168214Y-79976247D01*
X219168214Y-79976247D02*
X219168214Y-80214342D01*
X219168214Y-80214342D02*
X219120595Y-80309580D01*
X219120595Y-80309580D02*
X219072976Y-80357200D01*
X219072976Y-80357200D02*
X218977738Y-80404819D01*
X218977738Y-80404819D02*
X218739643Y-80404819D01*
X218739643Y-80404819D02*
X218644405Y-80357200D01*
X218644405Y-80357200D02*
X218596786Y-80309580D01*
X222848214Y-113784819D02*
X222848214Y-112784819D01*
X222848214Y-112784819D02*
X223086309Y-112784819D01*
X223086309Y-112784819D02*
X223229166Y-112832438D01*
X223229166Y-112832438D02*
X223324404Y-112927676D01*
X223324404Y-112927676D02*
X223372023Y-113022914D01*
X223372023Y-113022914D02*
X223419642Y-113213390D01*
X223419642Y-113213390D02*
X223419642Y-113356247D01*
X223419642Y-113356247D02*
X223372023Y-113546723D01*
X223372023Y-113546723D02*
X223324404Y-113641961D01*
X223324404Y-113641961D02*
X223229166Y-113737200D01*
X223229166Y-113737200D02*
X223086309Y-113784819D01*
X223086309Y-113784819D02*
X222848214Y-113784819D01*
X224372023Y-113784819D02*
X223800595Y-113784819D01*
X224086309Y-113784819D02*
X224086309Y-112784819D01*
X224086309Y-112784819D02*
X223991071Y-112927676D01*
X223991071Y-112927676D02*
X223895833Y-113022914D01*
X223895833Y-113022914D02*
X223800595Y-113070533D01*
X224991071Y-112784819D02*
X225086309Y-112784819D01*
X225086309Y-112784819D02*
X225181547Y-112832438D01*
X225181547Y-112832438D02*
X225229166Y-112880057D01*
X225229166Y-112880057D02*
X225276785Y-112975295D01*
X225276785Y-112975295D02*
X225324404Y-113165771D01*
X225324404Y-113165771D02*
X225324404Y-113403866D01*
X225324404Y-113403866D02*
X225276785Y-113594342D01*
X225276785Y-113594342D02*
X225229166Y-113689580D01*
X225229166Y-113689580D02*
X225181547Y-113737200D01*
X225181547Y-113737200D02*
X225086309Y-113784819D01*
X225086309Y-113784819D02*
X224991071Y-113784819D01*
X224991071Y-113784819D02*
X224895833Y-113737200D01*
X224895833Y-113737200D02*
X224848214Y-113689580D01*
X224848214Y-113689580D02*
X224800595Y-113594342D01*
X224800595Y-113594342D02*
X224752976Y-113403866D01*
X224752976Y-113403866D02*
X224752976Y-113165771D01*
X224752976Y-113165771D02*
X224800595Y-112975295D01*
X224800595Y-112975295D02*
X224848214Y-112880057D01*
X224848214Y-112880057D02*
X224895833Y-112832438D01*
X224895833Y-112832438D02*
X224991071Y-112784819D01*
X207634642Y-116284819D02*
X207301309Y-115808628D01*
X207063214Y-116284819D02*
X207063214Y-115284819D01*
X207063214Y-115284819D02*
X207444166Y-115284819D01*
X207444166Y-115284819D02*
X207539404Y-115332438D01*
X207539404Y-115332438D02*
X207587023Y-115380057D01*
X207587023Y-115380057D02*
X207634642Y-115475295D01*
X207634642Y-115475295D02*
X207634642Y-115618152D01*
X207634642Y-115618152D02*
X207587023Y-115713390D01*
X207587023Y-115713390D02*
X207539404Y-115761009D01*
X207539404Y-115761009D02*
X207444166Y-115808628D01*
X207444166Y-115808628D02*
X207063214Y-115808628D01*
X208587023Y-116284819D02*
X208015595Y-116284819D01*
X208301309Y-116284819D02*
X208301309Y-115284819D01*
X208301309Y-115284819D02*
X208206071Y-115427676D01*
X208206071Y-115427676D02*
X208110833Y-115522914D01*
X208110833Y-115522914D02*
X208015595Y-115570533D01*
X209539404Y-116284819D02*
X208967976Y-116284819D01*
X209253690Y-116284819D02*
X209253690Y-115284819D01*
X209253690Y-115284819D02*
X209158452Y-115427676D01*
X209158452Y-115427676D02*
X209063214Y-115522914D01*
X209063214Y-115522914D02*
X208967976Y-115570533D01*
X177392319Y-72935833D02*
X178106604Y-72935833D01*
X178106604Y-72935833D02*
X178249461Y-72983452D01*
X178249461Y-72983452D02*
X178344700Y-73078690D01*
X178344700Y-73078690D02*
X178392319Y-73221547D01*
X178392319Y-73221547D02*
X178392319Y-73316785D01*
X177487557Y-72507261D02*
X177439938Y-72459642D01*
X177439938Y-72459642D02*
X177392319Y-72364404D01*
X177392319Y-72364404D02*
X177392319Y-72126309D01*
X177392319Y-72126309D02*
X177439938Y-72031071D01*
X177439938Y-72031071D02*
X177487557Y-71983452D01*
X177487557Y-71983452D02*
X177582795Y-71935833D01*
X177582795Y-71935833D02*
X177678033Y-71935833D01*
X177678033Y-71935833D02*
X177820890Y-71983452D01*
X177820890Y-71983452D02*
X178392319Y-72554880D01*
X178392319Y-72554880D02*
X178392319Y-71935833D01*
X218283333Y-91284819D02*
X217950000Y-90808628D01*
X217711905Y-91284819D02*
X217711905Y-90284819D01*
X217711905Y-90284819D02*
X218092857Y-90284819D01*
X218092857Y-90284819D02*
X218188095Y-90332438D01*
X218188095Y-90332438D02*
X218235714Y-90380057D01*
X218235714Y-90380057D02*
X218283333Y-90475295D01*
X218283333Y-90475295D02*
X218283333Y-90618152D01*
X218283333Y-90618152D02*
X218235714Y-90713390D01*
X218235714Y-90713390D02*
X218188095Y-90761009D01*
X218188095Y-90761009D02*
X218092857Y-90808628D01*
X218092857Y-90808628D02*
X217711905Y-90808628D01*
X219140476Y-90618152D02*
X219140476Y-91284819D01*
X218902381Y-90237200D02*
X218664286Y-90951485D01*
X218664286Y-90951485D02*
X219283333Y-90951485D01*
X247602319Y-66809523D02*
X248316604Y-66809523D01*
X248316604Y-66809523D02*
X248459461Y-66857142D01*
X248459461Y-66857142D02*
X248554700Y-66952380D01*
X248554700Y-66952380D02*
X248602319Y-67095237D01*
X248602319Y-67095237D02*
X248602319Y-67190475D01*
X248602319Y-65809523D02*
X248602319Y-66380951D01*
X248602319Y-66095237D02*
X247602319Y-66095237D01*
X247602319Y-66095237D02*
X247745176Y-66190475D01*
X247745176Y-66190475D02*
X247840414Y-66285713D01*
X247840414Y-66285713D02*
X247888033Y-66380951D01*
X247602319Y-65190475D02*
X247602319Y-65095237D01*
X247602319Y-65095237D02*
X247649938Y-64999999D01*
X247649938Y-64999999D02*
X247697557Y-64952380D01*
X247697557Y-64952380D02*
X247792795Y-64904761D01*
X247792795Y-64904761D02*
X247983271Y-64857142D01*
X247983271Y-64857142D02*
X248221366Y-64857142D01*
X248221366Y-64857142D02*
X248411842Y-64904761D01*
X248411842Y-64904761D02*
X248507080Y-64952380D01*
X248507080Y-64952380D02*
X248554700Y-64999999D01*
X248554700Y-64999999D02*
X248602319Y-65095237D01*
X248602319Y-65095237D02*
X248602319Y-65190475D01*
X248602319Y-65190475D02*
X248554700Y-65285713D01*
X248554700Y-65285713D02*
X248507080Y-65333332D01*
X248507080Y-65333332D02*
X248411842Y-65380951D01*
X248411842Y-65380951D02*
X248221366Y-65428570D01*
X248221366Y-65428570D02*
X247983271Y-65428570D01*
X247983271Y-65428570D02*
X247792795Y-65380951D01*
X247792795Y-65380951D02*
X247697557Y-65333332D01*
X247697557Y-65333332D02*
X247649938Y-65285713D01*
X247649938Y-65285713D02*
X247602319Y-65190475D01*
X177392319Y-84985833D02*
X178106604Y-84985833D01*
X178106604Y-84985833D02*
X178249461Y-85033452D01*
X178249461Y-85033452D02*
X178344700Y-85128690D01*
X178344700Y-85128690D02*
X178392319Y-85271547D01*
X178392319Y-85271547D02*
X178392319Y-85366785D01*
X177392319Y-84604880D02*
X177392319Y-83985833D01*
X177392319Y-83985833D02*
X177773271Y-84319166D01*
X177773271Y-84319166D02*
X177773271Y-84176309D01*
X177773271Y-84176309D02*
X177820890Y-84081071D01*
X177820890Y-84081071D02*
X177868509Y-84033452D01*
X177868509Y-84033452D02*
X177963747Y-83985833D01*
X177963747Y-83985833D02*
X178201842Y-83985833D01*
X178201842Y-83985833D02*
X178297080Y-84033452D01*
X178297080Y-84033452D02*
X178344700Y-84081071D01*
X178344700Y-84081071D02*
X178392319Y-84176309D01*
X178392319Y-84176309D02*
X178392319Y-84462023D01*
X178392319Y-84462023D02*
X178344700Y-84557261D01*
X178344700Y-84557261D02*
X178297080Y-84604880D01*
D11*
%TO.C,D6*%
X220167500Y-63500000D02*
X221187500Y-63500000D01*
X221967500Y-62030000D02*
X221967500Y-64970000D01*
X222087500Y-62030000D02*
X222087500Y-64970000D01*
X222207500Y-62030000D02*
X222207500Y-64970000D01*
X227647500Y-63500000D02*
X226627500Y-63500000D01*
X221187500Y-62030000D02*
X226627500Y-62030000D01*
X226627500Y-64970000D01*
X221187500Y-64970000D01*
X221187500Y-62030000D01*
D12*
%TO.C,Q3*%
X227277500Y-100569285D02*
X227277500Y-102369285D01*
X230377500Y-102369285D02*
X230377500Y-100569285D01*
D13*
X227977500Y-103779285D02*
G75*
G02*
X227777500Y-103779285I-100000J0D01*
G01*
X227777500Y-103779285D02*
G75*
G02*
X227977500Y-103779285I100000J0D01*
G01*
D11*
%TO.C,R14*%
X209004564Y-68590000D02*
X207550436Y-68590000D01*
X209004564Y-70410000D02*
X207550436Y-70410000D01*
D12*
%TO.C,Q7*%
X227450000Y-57140714D02*
X227450000Y-58940714D01*
X230550000Y-58940714D02*
X230550000Y-57140714D01*
D13*
X228150000Y-60350714D02*
G75*
G02*
X227950000Y-60350714I-100000J0D01*
G01*
X227950000Y-60350714D02*
G75*
G02*
X228150000Y-60350714I100000J0D01*
G01*
D11*
%TO.C,D5*%
X220167500Y-74500000D02*
X221187500Y-74500000D01*
X221967500Y-73030000D02*
X221967500Y-75970000D01*
X222087500Y-73030000D02*
X222087500Y-75970000D01*
X222207500Y-73030000D02*
X222207500Y-75970000D01*
X227647500Y-74500000D02*
X226627500Y-74500000D01*
X221187500Y-73030000D02*
X226627500Y-73030000D01*
X226627500Y-75970000D01*
X221187500Y-75970000D01*
X221187500Y-73030000D01*
%TO.C,D15*%
X222412500Y-57135000D02*
X226472500Y-57135000D01*
X226472500Y-54865000D02*
X222412500Y-54865000D01*
X226472500Y-57135000D02*
X226472500Y-54865000D01*
%TO.C,R13*%
X209004564Y-79590000D02*
X207550436Y-79590000D01*
X209004564Y-81410000D02*
X207550436Y-81410000D01*
%TO.C,D9*%
X222887500Y-123135000D02*
X226947500Y-123135000D01*
X226947500Y-120865000D02*
X222887500Y-120865000D01*
X226947500Y-123135000D02*
X226947500Y-120865000D01*
%TO.C,J8*%
X237107500Y-82880000D02*
X247147500Y-82880000D01*
X237107500Y-85200000D02*
X237107500Y-82880000D01*
X237107500Y-93120000D02*
X237107500Y-85800000D01*
X237727500Y-82880000D02*
X237727500Y-93120000D01*
X239227500Y-82880000D02*
X239227500Y-93120000D01*
X244127500Y-82880000D02*
X244127500Y-93120000D01*
X247147500Y-82880000D02*
X247147500Y-93120000D01*
X247147500Y-93120000D02*
X237107500Y-93120000D01*
X237107500Y-85500000D02*
X236497500Y-85940000D01*
X236497500Y-85060000D01*
X237107500Y-85500000D01*
G36*
X237107500Y-85500000D02*
G01*
X236497500Y-85940000D01*
X236497500Y-85060000D01*
X237107500Y-85500000D01*
G37*
%TO.C,R9*%
X209004564Y-124090000D02*
X207550436Y-124090000D01*
X209004564Y-125910000D02*
X207550436Y-125910000D01*
%TO.C,J12*%
X237107500Y-38880000D02*
X247147500Y-38880000D01*
X237107500Y-41200000D02*
X237107500Y-38880000D01*
X237107500Y-49120000D02*
X237107500Y-41800000D01*
X237727500Y-38880000D02*
X237727500Y-49120000D01*
X239227500Y-38880000D02*
X239227500Y-49120000D01*
X244127500Y-38880000D02*
X244127500Y-49120000D01*
X247147500Y-38880000D02*
X247147500Y-49120000D01*
X247147500Y-49120000D02*
X237107500Y-49120000D01*
X237107500Y-41500000D02*
X236497500Y-41940000D01*
X236497500Y-41060000D01*
X237107500Y-41500000D01*
G36*
X237107500Y-41500000D02*
G01*
X236497500Y-41940000D01*
X236497500Y-41060000D01*
X237107500Y-41500000D01*
G37*
%TO.C,D12*%
X222387500Y-90135000D02*
X226447500Y-90135000D01*
X226447500Y-87865000D02*
X222387500Y-87865000D01*
X226447500Y-90135000D02*
X226447500Y-87865000D01*
%TO.C,R10*%
X209004564Y-101590000D02*
X207550436Y-101590000D01*
X209004564Y-103410000D02*
X207550436Y-103410000D01*
%TO.C,D4*%
X220167500Y-85500000D02*
X221187500Y-85500000D01*
X221967500Y-84030000D02*
X221967500Y-86970000D01*
X222087500Y-84030000D02*
X222087500Y-86970000D01*
X222207500Y-84030000D02*
X222207500Y-86970000D01*
X227647500Y-85500000D02*
X226627500Y-85500000D01*
X221187500Y-84030000D02*
X226627500Y-84030000D01*
X226627500Y-86970000D01*
X221187500Y-86970000D01*
X221187500Y-84030000D01*
%TO.C,J1*%
X166897500Y-55432500D02*
X176937500Y-55432500D01*
X166897500Y-57752500D02*
X166897500Y-55432500D01*
X166897500Y-65672500D02*
X166897500Y-58352500D01*
X167517500Y-55432500D02*
X167517500Y-65672500D01*
X169017500Y-55432500D02*
X169017500Y-65672500D01*
X173917500Y-55432500D02*
X173917500Y-65672500D01*
X176937500Y-55432500D02*
X176937500Y-65672500D01*
X176937500Y-65672500D02*
X166897500Y-65672500D01*
X166897500Y-58052500D02*
X166287500Y-58492500D01*
X166287500Y-57612500D01*
X166897500Y-58052500D01*
G36*
X166897500Y-58052500D02*
G01*
X166287500Y-58492500D01*
X166287500Y-57612500D01*
X166897500Y-58052500D01*
G37*
%TO.C,R1*%
X219277064Y-121090000D02*
X217822936Y-121090000D01*
X219277064Y-122910000D02*
X217822936Y-122910000D01*
%TO.C,J6*%
X237107500Y-105380000D02*
X247147500Y-105380000D01*
X237107500Y-107700000D02*
X237107500Y-105380000D01*
X237107500Y-115620000D02*
X237107500Y-108300000D01*
X237727500Y-105380000D02*
X237727500Y-115620000D01*
X239227500Y-105380000D02*
X239227500Y-115620000D01*
X244127500Y-105380000D02*
X244127500Y-115620000D01*
X247147500Y-105380000D02*
X247147500Y-115620000D01*
X247147500Y-115620000D02*
X237107500Y-115620000D01*
X237107500Y-108000000D02*
X236497500Y-108440000D01*
X236497500Y-107560000D01*
X237107500Y-108000000D01*
G36*
X237107500Y-108000000D02*
G01*
X236497500Y-108440000D01*
X236497500Y-107560000D01*
X237107500Y-108000000D01*
G37*
%TO.C,R15*%
X209004564Y-57590000D02*
X207550436Y-57590000D01*
X209004564Y-59410000D02*
X207550436Y-59410000D01*
%TO.C,C1*%
X191788748Y-69090000D02*
X193211252Y-69090000D01*
X191788748Y-70910000D02*
X193211252Y-70910000D01*
D12*
%TO.C,Q1*%
X227277500Y-122783571D02*
X227277500Y-124583571D01*
X230377500Y-124583571D02*
X230377500Y-122783571D01*
D13*
X227977500Y-125993571D02*
G75*
G02*
X227777500Y-125993571I-100000J0D01*
G01*
X227777500Y-125993571D02*
G75*
G02*
X227977500Y-125993571I100000J0D01*
G01*
D11*
%TO.C,R6*%
X219177064Y-66090000D02*
X217722936Y-66090000D01*
X219177064Y-67910000D02*
X217722936Y-67910000D01*
%TO.C,D2*%
X220167500Y-108000000D02*
X221187500Y-108000000D01*
X221967500Y-106530000D02*
X221967500Y-109470000D01*
X222087500Y-106530000D02*
X222087500Y-109470000D01*
X222207500Y-106530000D02*
X222207500Y-109470000D01*
X227647500Y-108000000D02*
X226627500Y-108000000D01*
X221187500Y-106530000D02*
X226627500Y-106530000D01*
X226627500Y-109470000D01*
X221187500Y-109470000D01*
X221187500Y-106530000D01*
%TO.C,R2*%
X219277064Y-110590000D02*
X217822936Y-110590000D01*
X219277064Y-112410000D02*
X217822936Y-112410000D01*
%TO.C,D7*%
X220167500Y-52500000D02*
X221187500Y-52500000D01*
X221967500Y-51030000D02*
X221967500Y-53970000D01*
X222087500Y-51030000D02*
X222087500Y-53970000D01*
X222207500Y-51030000D02*
X222207500Y-53970000D01*
X227647500Y-52500000D02*
X226627500Y-52500000D01*
X221187500Y-51030000D02*
X226627500Y-51030000D01*
X226627500Y-53970000D01*
X221187500Y-53970000D01*
X221187500Y-51030000D01*
D12*
%TO.C,Q4*%
X227277500Y-89712142D02*
X227277500Y-91512142D01*
X230377500Y-91512142D02*
X230377500Y-89712142D01*
D13*
X227977500Y-92922142D02*
G75*
G02*
X227777500Y-92922142I-100000J0D01*
G01*
X227777500Y-92922142D02*
G75*
G02*
X227977500Y-92922142I100000J0D01*
G01*
D11*
%TO.C,J4*%
X166780000Y-90880000D02*
X176820000Y-90880000D01*
X166780000Y-93200000D02*
X166780000Y-90880000D01*
X166780000Y-101120000D02*
X166780000Y-93800000D01*
X167400000Y-90880000D02*
X167400000Y-101120000D01*
X168900000Y-90880000D02*
X168900000Y-101120000D01*
X173800000Y-90880000D02*
X173800000Y-101120000D01*
X176820000Y-90880000D02*
X176820000Y-101120000D01*
X176820000Y-101120000D02*
X166780000Y-101120000D01*
X166780000Y-93500000D02*
X166170000Y-93940000D01*
X166170000Y-93060000D01*
X166780000Y-93500000D01*
G36*
X166780000Y-93500000D02*
G01*
X166170000Y-93940000D01*
X166170000Y-93060000D01*
X166780000Y-93500000D01*
G37*
%TO.C,R12*%
X209004564Y-90590000D02*
X207550436Y-90590000D01*
X209004564Y-92410000D02*
X207550436Y-92410000D01*
%TO.C,R3*%
X219227064Y-99090000D02*
X217772936Y-99090000D01*
X219227064Y-100910000D02*
X217772936Y-100910000D01*
%TO.C,D11*%
X222412500Y-101135000D02*
X226472500Y-101135000D01*
X226472500Y-98865000D02*
X222412500Y-98865000D01*
X226472500Y-101135000D02*
X226472500Y-98865000D01*
D12*
%TO.C,Q6*%
X227277500Y-67997857D02*
X227277500Y-69797857D01*
X230377500Y-69797857D02*
X230377500Y-67997857D01*
D13*
X227977500Y-71207857D02*
G75*
G02*
X227777500Y-71207857I-100000J0D01*
G01*
X227777500Y-71207857D02*
G75*
G02*
X227977500Y-71207857I100000J0D01*
G01*
D11*
%TO.C,J9*%
X237107500Y-71880000D02*
X247147500Y-71880000D01*
X237107500Y-74200000D02*
X237107500Y-71880000D01*
X237107500Y-82120000D02*
X237107500Y-74800000D01*
X237727500Y-71880000D02*
X237727500Y-82120000D01*
X239227500Y-71880000D02*
X239227500Y-82120000D01*
X244127500Y-71880000D02*
X244127500Y-82120000D01*
X247147500Y-71880000D02*
X247147500Y-82120000D01*
X247147500Y-82120000D02*
X237107500Y-82120000D01*
X237107500Y-74500000D02*
X236497500Y-74940000D01*
X236497500Y-74060000D01*
X237107500Y-74500000D01*
G36*
X237107500Y-74500000D02*
G01*
X236497500Y-74940000D01*
X236497500Y-74060000D01*
X237107500Y-74500000D01*
G37*
%TO.C,D16*%
X222412500Y-46135000D02*
X226472500Y-46135000D01*
X226472500Y-43865000D02*
X222412500Y-43865000D01*
X226472500Y-46135000D02*
X226472500Y-43865000D01*
%TO.C,D1*%
X220167500Y-119000000D02*
X221187500Y-119000000D01*
X221967500Y-117530000D02*
X221967500Y-120470000D01*
X222087500Y-117530000D02*
X222087500Y-120470000D01*
X222207500Y-117530000D02*
X222207500Y-120470000D01*
X227647500Y-119000000D02*
X226627500Y-119000000D01*
X221187500Y-117530000D02*
X226627500Y-117530000D01*
X226627500Y-120470000D01*
X221187500Y-120470000D01*
X221187500Y-117530000D01*
%TO.C,R16*%
X209004564Y-46590000D02*
X207550436Y-46590000D01*
X209004564Y-48410000D02*
X207550436Y-48410000D01*
%TO.C,R8*%
X219177064Y-44090000D02*
X217722936Y-44090000D01*
X219177064Y-45910000D02*
X217722936Y-45910000D01*
D14*
%TO.C,U2*%
X191016000Y-82178800D02*
X192286000Y-82178800D01*
X192286000Y-82178800D02*
X192895600Y-82178800D01*
X192895600Y-82178800D02*
X194165600Y-82178800D01*
X194165600Y-72171200D02*
X191016000Y-72171200D01*
X192286000Y-82178800D02*
G75*
G02*
X192895600Y-82178800I304800J0D01*
G01*
D11*
%TO.C,D14*%
X222412500Y-68135000D02*
X226472500Y-68135000D01*
X226472500Y-65865000D02*
X222412500Y-65865000D01*
X226472500Y-68135000D02*
X226472500Y-65865000D01*
%TO.C,J7*%
X237107500Y-93880000D02*
X247147500Y-93880000D01*
X237107500Y-96200000D02*
X237107500Y-93880000D01*
X237107500Y-104120000D02*
X237107500Y-96800000D01*
X237727500Y-93880000D02*
X237727500Y-104120000D01*
X239227500Y-93880000D02*
X239227500Y-104120000D01*
X244127500Y-93880000D02*
X244127500Y-104120000D01*
X247147500Y-93880000D02*
X247147500Y-104120000D01*
X247147500Y-104120000D02*
X237107500Y-104120000D01*
X237107500Y-96500000D02*
X236497500Y-96940000D01*
X236497500Y-96060000D01*
X237107500Y-96500000D01*
G36*
X237107500Y-96500000D02*
G01*
X236497500Y-96940000D01*
X236497500Y-96060000D01*
X237107500Y-96500000D01*
G37*
%TO.C,J11*%
X237107500Y-49880000D02*
X247147500Y-49880000D01*
X237107500Y-52200000D02*
X237107500Y-49880000D01*
X237107500Y-60120000D02*
X237107500Y-52800000D01*
X237727500Y-49880000D02*
X237727500Y-60120000D01*
X239227500Y-49880000D02*
X239227500Y-60120000D01*
X244127500Y-49880000D02*
X244127500Y-60120000D01*
X247147500Y-49880000D02*
X247147500Y-60120000D01*
X247147500Y-60120000D02*
X237107500Y-60120000D01*
X237107500Y-52500000D02*
X236497500Y-52940000D01*
X236497500Y-52060000D01*
X237107500Y-52500000D01*
G36*
X237107500Y-52500000D02*
G01*
X236497500Y-52940000D01*
X236497500Y-52060000D01*
X237107500Y-52500000D01*
G37*
%TO.C,D3*%
X220167500Y-96500000D02*
X221187500Y-96500000D01*
X221967500Y-95030000D02*
X221967500Y-97970000D01*
X222087500Y-95030000D02*
X222087500Y-97970000D01*
X222207500Y-95030000D02*
X222207500Y-97970000D01*
X227647500Y-96500000D02*
X226627500Y-96500000D01*
X221187500Y-95030000D02*
X226627500Y-95030000D01*
X226627500Y-97970000D01*
X221187500Y-97970000D01*
X221187500Y-95030000D01*
%TO.C,J5*%
X237107500Y-116380000D02*
X247147500Y-116380000D01*
X237107500Y-118700000D02*
X237107500Y-116380000D01*
X237107500Y-126620000D02*
X237107500Y-119300000D01*
X237727500Y-116380000D02*
X237727500Y-126620000D01*
X239227500Y-116380000D02*
X239227500Y-126620000D01*
X244127500Y-116380000D02*
X244127500Y-126620000D01*
X247147500Y-116380000D02*
X247147500Y-126620000D01*
X247147500Y-126620000D02*
X237107500Y-126620000D01*
X237107500Y-119000000D02*
X236497500Y-119440000D01*
X236497500Y-118560000D01*
X237107500Y-119000000D01*
G36*
X237107500Y-119000000D02*
G01*
X236497500Y-119440000D01*
X236497500Y-118560000D01*
X237107500Y-119000000D01*
G37*
D12*
%TO.C,Q8*%
X227277500Y-46283571D02*
X227277500Y-48083571D01*
X230377500Y-48083571D02*
X230377500Y-46283571D01*
D13*
X227977500Y-49493571D02*
G75*
G02*
X227777500Y-49493571I-100000J0D01*
G01*
X227777500Y-49493571D02*
G75*
G02*
X227977500Y-49493571I100000J0D01*
G01*
D11*
%TO.C,D13*%
X222412500Y-79135000D02*
X226472500Y-79135000D01*
X226472500Y-76865000D02*
X222412500Y-76865000D01*
X226472500Y-79135000D02*
X226472500Y-76865000D01*
%TO.C,R7*%
X219277064Y-55090000D02*
X217822936Y-55090000D01*
X219277064Y-56910000D02*
X217822936Y-56910000D01*
%TO.C,D8*%
X220167500Y-41500000D02*
X221187500Y-41500000D01*
X221967500Y-40030000D02*
X221967500Y-42970000D01*
X222087500Y-40030000D02*
X222087500Y-42970000D01*
X222207500Y-40030000D02*
X222207500Y-42970000D01*
X227647500Y-41500000D02*
X226627500Y-41500000D01*
X221187500Y-40030000D02*
X226627500Y-40030000D01*
X226627500Y-42970000D01*
X221187500Y-42970000D01*
X221187500Y-40030000D01*
D12*
%TO.C,Q2*%
X227277500Y-111926428D02*
X227277500Y-113726428D01*
X230377500Y-113726428D02*
X230377500Y-111926428D01*
D13*
X227977500Y-115136428D02*
G75*
G02*
X227777500Y-115136428I-100000J0D01*
G01*
X227777500Y-115136428D02*
G75*
G02*
X227977500Y-115136428I100000J0D01*
G01*
D12*
%TO.C,Q5*%
X227277500Y-78855000D02*
X227277500Y-80655000D01*
X230377500Y-80655000D02*
X230377500Y-78855000D01*
D13*
X227977500Y-82065000D02*
G75*
G02*
X227777500Y-82065000I-100000J0D01*
G01*
X227777500Y-82065000D02*
G75*
G02*
X227977500Y-82065000I100000J0D01*
G01*
D11*
%TO.C,R5*%
X219109564Y-77210000D02*
X217655436Y-77210000D01*
X219109564Y-79030000D02*
X217655436Y-79030000D01*
%TO.C,D10*%
X222462500Y-112635000D02*
X226522500Y-112635000D01*
X226522500Y-110365000D02*
X222462500Y-110365000D01*
X226522500Y-112635000D02*
X226522500Y-110365000D01*
%TO.C,R11*%
X209004564Y-113090000D02*
X207550436Y-113090000D01*
X209004564Y-114910000D02*
X207550436Y-114910000D01*
%TO.C,J2*%
X166897500Y-67482500D02*
X176937500Y-67482500D01*
X166897500Y-69802500D02*
X166897500Y-67482500D01*
X166897500Y-77722500D02*
X166897500Y-70402500D01*
X167517500Y-67482500D02*
X167517500Y-77722500D01*
X169017500Y-67482500D02*
X169017500Y-77722500D01*
X173917500Y-67482500D02*
X173917500Y-77722500D01*
X176937500Y-67482500D02*
X176937500Y-77722500D01*
X176937500Y-77722500D02*
X166897500Y-77722500D01*
X166897500Y-70102500D02*
X166287500Y-70542500D01*
X166287500Y-69662500D01*
X166897500Y-70102500D01*
G36*
X166897500Y-70102500D02*
G01*
X166287500Y-70542500D01*
X166287500Y-69662500D01*
X166897500Y-70102500D01*
G37*
%TO.C,R4*%
X219177064Y-88090000D02*
X217722936Y-88090000D01*
X219177064Y-89910000D02*
X217722936Y-89910000D01*
%TO.C,J10*%
X237107500Y-60880000D02*
X247147500Y-60880000D01*
X237107500Y-63200000D02*
X237107500Y-60880000D01*
X237107500Y-71120000D02*
X237107500Y-63800000D01*
X237727500Y-60880000D02*
X237727500Y-71120000D01*
X239227500Y-60880000D02*
X239227500Y-71120000D01*
X244127500Y-60880000D02*
X244127500Y-71120000D01*
X247147500Y-60880000D02*
X247147500Y-71120000D01*
X247147500Y-71120000D02*
X237107500Y-71120000D01*
X237107500Y-63500000D02*
X236497500Y-63940000D01*
X236497500Y-63060000D01*
X237107500Y-63500000D01*
G36*
X237107500Y-63500000D02*
G01*
X236497500Y-63940000D01*
X236497500Y-63060000D01*
X237107500Y-63500000D01*
G37*
%TO.C,J3*%
X166897500Y-79532500D02*
X176937500Y-79532500D01*
X166897500Y-81852500D02*
X166897500Y-79532500D01*
X166897500Y-89772500D02*
X166897500Y-82452500D01*
X167517500Y-79532500D02*
X167517500Y-89772500D01*
X169017500Y-79532500D02*
X169017500Y-89772500D01*
X173917500Y-79532500D02*
X173917500Y-89772500D01*
X176937500Y-79532500D02*
X176937500Y-89772500D01*
X176937500Y-89772500D02*
X166897500Y-89772500D01*
X166897500Y-82152500D02*
X166287500Y-82592500D01*
X166287500Y-81712500D01*
X166897500Y-82152500D01*
G36*
X166897500Y-82152500D02*
G01*
X166287500Y-82592500D01*
X166287500Y-81712500D01*
X166897500Y-82152500D01*
G37*
%TD*%
M02*
