%TF.GenerationSoftware,KiCad,Pcbnew,9.0.7*%
%TF.CreationDate,2026-02-02T23:09:48+01:00*%
%TF.ProjectId,shiftBoard,73686966-7442-46f6-9172-642e6b696361,rev?*%
%TF.SameCoordinates,Original*%
%TF.FileFunction,Paste,Top*%
%TF.FilePolarity,Positive*%
%FSLAX46Y46*%
G04 Gerber Fmt 4.6, Leading zero omitted, Abs format (unit mm)*
G04 Created by KiCad (PCBNEW 9.0.7) date 2026-02-02 23:09:48*
%MOMM*%
%LPD*%
G01*
G04 APERTURE LIST*
G04 Aperture macros list*
%AMRoundRect*
0 Rectangle with rounded corners*
0 $1 Rounding radius*
0 $2 $3 $4 $5 $6 $7 $8 $9 X,Y pos of 4 corners*
0 Add a 4 corners polygon primitive as box body*
4,1,4,$2,$3,$4,$5,$6,$7,$8,$9,$2,$3,0*
0 Add four circle primitives for the rounded corners*
1,1,$1+$1,$2,$3*
1,1,$1+$1,$4,$5*
1,1,$1+$1,$6,$7*
1,1,$1+$1,$8,$9*
0 Add four rect primitives between the rounded corners*
20,1,$1+$1,$2,$3,$4,$5,0*
20,1,$1+$1,$4,$5,$6,$7,0*
20,1,$1+$1,$6,$7,$8,$9,0*
20,1,$1+$1,$8,$9,$2,$3,0*%
G04 Aperture macros list end*
%ADD10RoundRect,0.147500X0.147500X-0.457500X0.147500X0.457500X-0.147500X0.457500X-0.147500X-0.457500X0*%
%ADD11RoundRect,0.250000X0.400000X0.625000X-0.400000X0.625000X-0.400000X-0.625000X0.400000X-0.625000X0*%
%ADD12RoundRect,0.250001X0.462499X0.624999X-0.462499X0.624999X-0.462499X-0.624999X0.462499X-0.624999X0*%
%ADD13RoundRect,0.250000X-0.650000X0.412500X-0.650000X-0.412500X0.650000X-0.412500X0.650000X0.412500X0*%
%ADD14R,1.701800X0.533400*%
G04 APERTURE END LIST*
D10*
%TO.C,Q3*%
X227877500Y-102724285D03*
X229777500Y-102724285D03*
X228827500Y-100214285D03*
%TD*%
D11*
%TO.C,R14*%
X209827500Y-69500000D03*
X206727500Y-69500000D03*
%TD*%
D10*
%TO.C,Q7*%
X228050000Y-59295714D03*
X229950000Y-59295714D03*
X229000000Y-56785714D03*
%TD*%
D12*
%TO.C,D15*%
X225500000Y-56000000D03*
X222525000Y-56000000D03*
%TD*%
D11*
%TO.C,R13*%
X209827500Y-80500000D03*
X206727500Y-80500000D03*
%TD*%
D12*
%TO.C,D9*%
X225975000Y-122000000D03*
X223000000Y-122000000D03*
%TD*%
D11*
%TO.C,R9*%
X209827500Y-125000000D03*
X206727500Y-125000000D03*
%TD*%
D12*
%TO.C,D12*%
X225475000Y-89000000D03*
X222500000Y-89000000D03*
%TD*%
D11*
%TO.C,R10*%
X209827500Y-102500000D03*
X206727500Y-102500000D03*
%TD*%
%TO.C,R1*%
X220100000Y-122000000D03*
X217000000Y-122000000D03*
%TD*%
%TO.C,R15*%
X209827500Y-58500000D03*
X206727500Y-58500000D03*
%TD*%
D13*
%TO.C,C1*%
X183937500Y-56937500D03*
X183937500Y-60062500D03*
%TD*%
D10*
%TO.C,Q1*%
X227877500Y-124938571D03*
X229777500Y-124938571D03*
X228827500Y-122428571D03*
%TD*%
D11*
%TO.C,R6*%
X220000000Y-67000000D03*
X216900000Y-67000000D03*
%TD*%
%TO.C,R2*%
X220100000Y-111500000D03*
X217000000Y-111500000D03*
%TD*%
D10*
%TO.C,Q4*%
X227877500Y-91867142D03*
X229777500Y-91867142D03*
X228827500Y-89357142D03*
%TD*%
D11*
%TO.C,R12*%
X209827500Y-91500000D03*
X206727500Y-91500000D03*
%TD*%
%TO.C,R3*%
X220050000Y-100000000D03*
X216950000Y-100000000D03*
%TD*%
D12*
%TO.C,D11*%
X225500000Y-100000000D03*
X222525000Y-100000000D03*
%TD*%
D10*
%TO.C,Q6*%
X227877500Y-70152857D03*
X229777500Y-70152857D03*
X228827500Y-67642857D03*
%TD*%
D12*
%TO.C,D16*%
X225500000Y-45000000D03*
X222525000Y-45000000D03*
%TD*%
D11*
%TO.C,R16*%
X209827500Y-47500000D03*
X206727500Y-47500000D03*
%TD*%
%TO.C,R8*%
X220000000Y-45000000D03*
X216900000Y-45000000D03*
%TD*%
D14*
%TO.C,U2*%
X195181600Y-81620000D03*
X195181600Y-80350000D03*
X195181600Y-79080000D03*
X195181600Y-77810000D03*
X195181600Y-76540000D03*
X195181600Y-75270000D03*
X195181600Y-74000000D03*
X195181600Y-72730000D03*
X190000000Y-72730000D03*
X190000000Y-74000000D03*
X190000000Y-75270000D03*
X190000000Y-76540000D03*
X190000000Y-77810000D03*
X190000000Y-79080000D03*
X190000000Y-80350000D03*
X190000000Y-81620000D03*
%TD*%
D12*
%TO.C,D14*%
X225500000Y-67000000D03*
X222525000Y-67000000D03*
%TD*%
D10*
%TO.C,Q8*%
X227877500Y-48438571D03*
X229777500Y-48438571D03*
X228827500Y-45928571D03*
%TD*%
D12*
%TO.C,D13*%
X225500000Y-78000000D03*
X222525000Y-78000000D03*
%TD*%
D11*
%TO.C,R7*%
X220100000Y-56000000D03*
X217000000Y-56000000D03*
%TD*%
D10*
%TO.C,Q2*%
X227877500Y-114081428D03*
X229777500Y-114081428D03*
X228827500Y-111571428D03*
%TD*%
%TO.C,Q5*%
X227877500Y-81010000D03*
X229777500Y-81010000D03*
X228827500Y-78500000D03*
%TD*%
D11*
%TO.C,R5*%
X219932500Y-78120000D03*
X216832500Y-78120000D03*
%TD*%
D12*
%TO.C,D10*%
X225550000Y-111500000D03*
X222575000Y-111500000D03*
%TD*%
D11*
%TO.C,R11*%
X209827500Y-114000000D03*
X206727500Y-114000000D03*
%TD*%
%TO.C,R4*%
X220000000Y-89000000D03*
X216900000Y-89000000D03*
%TD*%
M02*
